<svg xmlns="http://www.w3.org/2000/svg" width="1031" height="853" viewBox="0 0 1031 853">
<g>
<path d="M 540.00 133.54 C546.90,136.14 547.45,135.42 542.75,129.97 C540.19,126.99 537.11,122.95 534.76,119.55 L 537.50 123.26 L 548.16 123.08 C554.75,122.96 559.06,123.29 559.47,123.95 C559.82,124.53 562.49,125.00 565.39,125.00 C568.29,125.00 570.98,125.31 571.36,125.69 C571.74,126.07 574.24,126.26 576.92,126.12 C579.60,125.98 582.09,126.34 582.46,126.93 C582.82,127.52 584.86,128.00 587.00,128.00 C589.14,128.00 591.13,128.40 591.44,128.90 C591.74,129.39 595.59,130.11 599.99,130.50 C604.40,130.89 608.00,131.61 608.00,132.10 C608.00,132.60 609.32,133.00 610.94,133.00 C612.56,133.00 614.12,133.39 614.42,133.87 C614.71,134.35 617.20,135.03 619.94,135.40 C622.68,135.76 625.19,136.49 625.52,137.03 C625.85,137.56 626.98,138.00 628.02,138.00 C629.86,138.00 637.35,140.19 641.50,141.94 C642.60,142.41 645.75,143.57 648.50,144.52 C657.55,147.66 662.25,149.74 679.50,158.23 C690.55,163.67 695.07,166.07 696.00,167.00 C696.28,167.27 698.97,168.81 702.00,170.42 C705.03,172.03 707.72,173.61 708.00,173.94 C708.77,174.85 725.80,186.32 728.63,187.84 C730.00,188.57 731.37,189.81 731.67,190.59 C731.97,191.36 732.64,192.00 733.15,192.00 C734.00,192.00 738.24,195.29 750.94,205.82 C757.28,211.07 784.00,237.26 784.00,238.21 C784.00,238.65 786.70,241.78 790.00,245.16 C793.30,248.54 796.00,251.83 796.00,252.46 C796.00,253.09 797.58,255.13 799.50,257.00 C801.42,258.87 803.00,260.87 803.00,261.46 C803.00,262.04 803.90,263.08 805.00,263.77 C806.10,264.45 807.00,265.51 807.00,266.12 C807.00,266.73 808.91,269.51 811.25,272.30 C815.30,277.13 817.04,279.66 818.64,283.00 C819.03,283.83 819.63,284.73 819.96,285.00 C820.85,285.73 829.83,300.39 832.72,305.81 C834.07,308.36 836.04,311.65 837.09,313.13 C838.14,314.60 839.00,316.24 839.00,316.77 C839.00,317.30 841.03,321.70 843.50,326.55 C845.97,331.41 848.00,335.73 848.00,336.16 C848.00,336.59 849.06,339.32 850.35,342.22 C851.64,345.12 853.71,350.20 854.94,353.50 C856.18,356.80 857.56,360.40 858.01,361.50 C858.45,362.60 860.03,367.55 861.52,372.50 C863.00,377.45 864.60,382.40 865.07,383.50 C865.87,385.35 867.41,392.28 868.63,399.50 C868.91,401.15 869.52,403.40 870.00,404.50 C870.48,405.60 871.14,408.08 871.47,410.00 C871.80,411.92 872.48,415.75 872.96,418.50 C873.45,421.25 873.89,425.84 873.93,428.69 C873.97,431.55 874.45,434.16 875.00,434.50 C875.55,434.84 876.00,438.47 876.00,442.56 C876.00,447.53 876.38,450.00 877.16,450.00 C878.63,450.00 877.63,520.99 876.15,521.91 C875.62,522.24 874.92,525.88 874.59,530.00 C873.57,542.88 873.30,545.04 872.64,545.69 C872.29,546.05 872.00,548.26 872.00,550.61 C872.00,552.96 871.60,555.13 871.11,555.43 C870.61,555.74 869.97,557.68 869.67,559.74 C869.38,561.81 868.89,564.62 868.60,566.00 C868.30,567.38 867.76,570.42 867.39,572.77 C867.03,575.13 866.34,577.29 865.87,577.58 C865.39,577.88 865.00,579.44 865.00,581.06 C865.00,582.68 864.55,584.00 864.00,584.00 C863.45,584.00 863.00,585.06 863.00,586.35 C863.00,589.42 860.76,596.47 858.01,602.03 C857.59,602.88 856.91,605.11 856.50,607.00 C856.09,608.89 855.39,611.12 854.96,611.97 C854.52,612.81 853.50,615.08 852.69,617.00 C848.65,626.57 846.84,630.65 845.96,632.24 C845.43,633.19 845.00,634.62 845.00,635.40 C845.00,636.19 844.66,636.98 844.25,637.17 C843.84,637.35 841.94,640.65 840.04,644.50 C835.08,654.53 824.92,671.57 819.74,678.53 C817.30,681.81 814.06,686.64 812.55,689.25 C811.04,691.86 809.40,694.00 808.90,694.00 C808.90,694.00 808.90,694.00 808.89,694.00 C809.82,693.95 816.03,683.94 821.09,674.33 C822.65,671.36 824.68,668.17 825.60,667.26 C826.59,666.27 826.84,665.45 826.20,665.23 C825.55,665.02 825.92,663.55 827.15,661.46 C828.26,659.59 829.83,655.45 830.64,652.27 C842.80,604.49 843.77,577.05 834.30,549.06 C826.67,526.48 804.60,495.96 785.94,482.16 C762.43,464.77 722.05,457.84 689.10,465.53 C685.57,466.35 682.46,466.80 682.19,466.52 C680.37,464.71 693.57,455.62 699.50,454.61 C708.55,453.05 711.87,449.63 706.64,447.25 C701.91,445.09 680.86,443.70 662.50,444.33 C643.35,444.99 627.15,447.20 610.00,451.51 C598.60,454.37 578.41,461.50 576.00,463.52 C575.17,464.21 572.03,465.82 569.00,467.08 C565.97,468.35 561.74,470.47 559.59,471.80 C554.80,474.77 541.97,480.30 541.34,479.67 C541.09,479.42 541.92,475.90 543.19,471.86 C545.28,465.20 545.50,462.65 545.46,445.00 C545.41,416.53 543.22,406.54 534.07,393.01 C531.37,389.02 531.23,388.46 532.77,387.91 C533.72,387.57 541.83,387.00 550.79,386.64 C587.21,385.18 614.85,378.30 649.81,361.95 C663.42,355.60 677.55,342.91 676.82,337.73 C676.59,336.10 674.74,334.64 670.00,332.33 C648.80,322.01 643.96,319.55 639.00,316.56 C635.97,314.74 633.61,312.76 633.74,312.15 C634.14,310.36 619.49,298.00 616.98,298.00 C616.43,298.00 614.74,295.41 613.24,292.25 L 610.50 286.50 L 610.81 262.20 C611.12,237.94 610.47,229.21 607.36,215.50 C605.28,206.39 603.99,203.31 597.70,192.60 C589.98,179.45 586.77,178.12 589.70,189.28 C591.16,194.85 591.26,196.88 590.30,202.48 C589.14,209.23 587.74,212.00 585.50,212.00 C584.75,212.00 583.39,208.47 582.13,203.25 C577.72,185.08 566.49,168.60 551.46,158.26 C546.99,155.18 537.36,150.00 536.10,150.00 C533.83,150.00 523.24,145.03 508.17,136.88 C503.47,134.34 498.23,129.88 494.35,125.36 C494.70,125.49 495.00,125.40 495.29,125.11 C495.90,124.50 498.90,124.00 501.95,123.99 C505.00,123.99 511.77,123.71 517.00,123.36 L 526.24 122.75 L 526.34 127.07 L 531.42 129.65 C534.21,131.07 538.08,132.82 540.00,133.54 ZM 299.99 197.64 C300.08,198.45 300.16,199.33 300.22,200.25 C300.90,210.51 306.62,228.66 312.67,239.79 C315.63,245.23 315.59,245.83 312.25,247.09 C300.51,251.51 287.06,259.85 287.02,262.74 C287.00,263.66 290.55,263.95 301.25,263.88 C309.09,263.83 317.62,264.11 320.22,264.51 C325.04,265.23 327.68,267.09 326.53,268.96 C325.75,270.21 310.35,270.37 309.58,269.13 C308.86,267.96 303.74,268.93 302.49,270.48 C301.93,271.17 298.10,272.95 293.99,274.43 C285.14,277.61 279.79,280.61 272.70,286.36 C256.18,299.77 246.90,304.00 233.99,304.00 C226.17,304.00 220.56,302.69 218.18,300.32 C216.91,299.05 213.00,298.45 213.00,299.51 C213.00,299.80 215.14,302.30 217.75,305.08 C223.01,310.68 234.76,318.28 240.67,319.93 C245.51,321.27 251.69,321.31 252.50,320.00 C252.84,319.45 254.55,318.99 256.31,318.97 C260.04,318.94 270.58,314.61 277.00,310.47 C279.48,308.87 283.29,306.59 285.48,305.40 L 289.46 303.22 L 291.23 305.27 C292.19,306.38 292.72,306.92 292.83,307.53 C292.95,308.21 292.56,308.98 291.67,310.71 C291.58,310.90 291.48,311.09 291.38,311.30 C285.82,322.25 272.49,333.28 264.92,333.18 C262.75,333.15 260.14,332.86 259.13,332.54 C258.07,332.20 256.74,332.61 256.02,333.48 C255.32,334.31 254.14,335.00 253.38,335.00 C252.62,335.00 251.20,335.80 250.22,336.78 C249.24,337.76 245.81,339.80 242.59,341.33 C239.37,342.85 235.29,345.20 233.52,346.55 C231.76,347.90 229.88,349.00 229.34,349.00 C227.39,349.00 222.94,354.76 218.98,362.41 C216.75,366.73 215.17,370.51 215.48,370.81 C215.78,371.12 217.26,370.38 218.77,369.17 C223.25,365.58 229.40,361.64 231.00,361.34 C237.75,360.06 239.00,359.58 239.47,358.09 C240.23,355.68 249.48,354.00 261.92,354.00 C270.46,354.00 272.12,354.24 271.66,355.44 C271.35,356.26 271.78,357.01 272.66,357.19 C273.55,357.37 269.78,360.49 263.86,364.48 C252.66,372.03 230.89,392.40 221.08,404.50 C206.48,422.51 196.35,441.96 187.24,469.50 C181.21,487.70 180.48,490.30 178.56,500.50 C177.73,504.90 176.60,510.83 176.05,513.69 C175.50,516.54 174.75,526.22 174.38,535.19 C173.87,547.70 174.30,558.80 175.80,569.66 C175.69,569.01 175.59,568.38 175.49,567.75 C175.13,565.40 174.37,564.00 173.45,564.00 C172.46,564.00 172.00,562.90 172.00,560.56 C172.00,558.67 171.55,556.84 171.00,556.50 C170.45,556.16 170.00,553.47 170.00,550.52 C170.00,547.58 169.59,545.02 169.08,544.83 C168.58,544.65 167.85,538.65 167.46,531.50 C167.07,524.35 166.25,517.83 165.63,517.00 C164.48,515.47 165.06,450.98 166.33,439.00 C166.65,435.98 167.20,430.80 167.56,427.50 C167.91,424.20 168.56,421.05 169.01,420.50 C169.46,419.95 170.15,415.78 170.54,411.23 C170.94,406.68 171.65,402.71 172.13,402.42 C172.61,402.12 173.00,400.55 173.00,398.93 C173.00,397.30 173.43,395.19 173.95,394.24 C175.00,392.30 176.44,385.14 176.14,383.33 C176.03,382.68 176.41,381.87 176.97,381.52 C177.54,381.17 178.00,379.56 178.00,377.94 C178.00,376.32 178.45,375.00 179.00,375.00 C179.55,375.00 180.00,373.87 180.00,372.49 C180.00,371.10 180.45,369.08 181.00,367.99 L 183.00 364.01 C183.55,362.92 184.00,361.34 184.00,360.50 C184.00,359.66 184.41,358.19 184.92,357.24 C185.92,355.33 188.12,350.24 192.56,339.50 C194.16,335.65 195.81,332.35 196.23,332.17 C196.65,331.98 197.00,331.07 197.00,330.14 C197.00,328.31 207.04,308.20 210.12,303.85 C211.15,302.39 212.00,300.58 212.00,299.84 C212.00,299.09 212.90,297.92 214.00,297.23 C215.10,296.55 216.00,295.31 216.00,294.49 C216.00,293.67 216.45,293.00 217.00,293.00 C217.55,293.00 218.00,292.36 218.00,291.58 C218.00,290.80 218.34,290.02 218.75,289.83 C219.81,289.36 224.00,283.26 224.00,282.20 C224.00,281.71 224.90,280.50 226.00,279.50 C227.10,278.50 228.00,277.12 228.00,276.42 C228.00,275.72 229.12,274.26 230.50,273.18 C231.88,272.10 233.00,270.68 233.00,270.02 C233.00,269.37 234.57,267.43 236.50,265.73 C238.43,264.03 240.00,262.13 240.00,261.52 C240.00,260.91 241.80,258.65 244.00,256.50 C246.20,254.35 248.00,252.12 248.00,251.54 C248.00,250.26 280.98,217.72 290.36,209.75 C294.08,206.59 297.78,204.00 298.57,204.00 C299.64,204.00 300.00,202.61 300.00,198.50 C300.00,198.21 300.00,197.92 299.99,197.64 ZM 486.53 121.20 C487.20,128.04 488.07,130.85 491.89,138.87 C493.48,142.19 500.85,150.10 510.79,159.12 C516.40,164.21 518.95,170.00 516.08,171.12 C515.21,171.46 513.31,170.89 511.85,169.87 C510.39,168.84 508.78,168.00 508.27,168.00 C507.76,168.00 506.29,166.88 505.00,165.50 C503.71,164.12 502.36,163.00 502.01,163.00 C501.65,163.00 498.02,159.86 493.93,156.02 C486.12,148.69 485.00,148.01 485.00,150.58 C485.00,151.84 484.34,152.02 481.75,151.46 C479.96,151.08 478.46,150.71 478.41,150.63 C470.31,138.87 461.01,128.37 450.44,119.07 C451.10,119.63 451.76,120.19 452.42,120.75 C459.65,126.93 459.81,127.00 465.81,127.00 C469.15,127.00 472.16,126.55 472.50,126.00 C472.84,125.45 475.53,125.00 478.48,125.00 C485.13,125.00 486.55,124.84 486.53,121.20 ZM 181.52 595.74 C181.89,596.98 182.28,598.24 182.67,599.50 C184.59,605.55 186.54,611.40 187.01,612.50 C185.30,608.54 183.36,602.53 181.52,595.74 ZM 531.05 113.57 C529.22,110.55 527.68,109.08 526.84,109.60 C526.42,109.86 526.12,112.90 526.12,116.71 C525.98,113.94 526.11,111.15 526.43,110.33 C526.98,108.89 527.24,108.91 529.02,110.52 C530.11,111.50 531.01,112.80 531.02,113.40 C531.03,113.45 531.03,113.51 531.05,113.57 ZM 489.00 117.25 C488.46,116.19 487.94,115.25 487.50,114.53 C488.33,115.57 489.00,116.77 489.00,117.21 C489.00,117.22 489.00,117.24 489.00,117.25 ZM 486.18 113.65 C486.14,114.12 486.13,114.85 486.16,115.75 C486.09,114.63 486.08,113.96 486.18,113.65 ZM 442.76 112.70 C442.61,112.57 442.45,112.45 442.29,112.33 C440.76,111.14 438.09,109.00 436.36,107.58 C438.09,109.00 440.76,111.14 442.30,112.33 C442.43,112.43 442.59,112.56 442.76,112.70 Z" fill="rgb(49,49,49)"/>
<path d="M 793.01 488.02 C792.96,488.01 792.92,488.00 792.89,488.00 C792.40,488.00 789.19,485.91 785.75,483.35 C774.44,474.94 758.23,468.36 741.70,465.45 C729.02,463.21 705.49,463.54 692.86,466.11 C687.16,467.28 681.87,468.29 681.11,468.36 C675.95,468.87 683.54,459.79 691.75,455.63 C694.40,454.29 698.67,452.87 701.25,452.49 C707.19,451.59 709.32,449.45 705.65,448.06 C701.70,446.56 684.08,445.00 671.00,445.00 C629.67,445.00 584.84,456.73 552.24,476.07 C545.79,479.90 540.38,482.63 540.22,482.15 C540.06,481.67 541.17,477.72 542.70,473.39 C542.74,473.28 542.78,473.17 542.82,473.07 C541.76,476.58 541.11,479.44 541.34,479.67 C541.97,480.30 554.80,474.77 559.59,471.80 C561.74,470.47 565.97,468.35 569.00,467.08 C572.03,465.82 575.17,464.21 576.00,463.52 C578.41,461.50 598.60,454.37 610.00,451.51 C627.15,447.20 643.35,444.99 662.50,444.33 C680.86,443.70 701.91,445.09 706.64,447.25 C711.87,449.63 708.55,453.05 699.50,454.61 C693.57,455.62 680.37,464.71 682.19,466.52 C682.46,466.80 685.57,466.35 689.10,465.53 C722.05,457.84 762.43,464.77 785.94,482.16 C788.26,483.87 790.62,485.84 793.01,488.02 ZM 808.89 694.00 C808.40,694.02 808.00,694.61 808.00,695.34 C808.00,694.60 808.39,694.00 808.87,694.00 C810.03,694.00 820.00,677.28 820.00,675.34 C820.00,674.50 821.28,671.05 822.84,667.66 C829.21,653.85 838.00,620.99 838.00,610.98 C838.00,609.41 838.41,607.87 838.90,607.56 C839.24,607.35 839.53,606.29 839.78,604.64 C838.39,618.27 835.35,633.74 830.64,652.27 C829.83,655.45 828.26,659.59 827.15,661.46 C825.92,663.55 825.55,665.02 826.20,665.23 C826.84,665.45 826.59,666.27 825.60,667.26 C824.68,668.17 822.65,671.36 821.09,674.33 C816.04,683.94 809.83,693.95 808.89,694.00 ZM 615.25 295.98 C616.03,297.21 616.67,298.00 616.98,298.00 C619.49,298.00 634.14,310.36 633.74,312.15 C633.64,312.61 634.99,313.88 636.97,315.25 C633.91,313.28 631.22,311.25 627.50,308.38 C620.75,303.18 617.89,300.46 615.25,295.98 ZM 238.42 343.49 C239.81,342.72 241.27,341.95 242.59,341.33 C245.81,339.80 249.24,337.76 250.22,336.78 C251.20,335.80 252.62,335.00 253.38,335.00 C254.14,335.00 255.32,334.31 256.02,333.48 C256.74,332.61 258.07,332.20 259.13,332.54 C260.14,332.86 262.75,333.15 264.92,333.18 C265.82,333.19 266.80,333.05 267.84,332.77 C263.23,334.82 257.98,336.55 252.00,338.01 C248.04,338.98 242.70,341.18 238.42,343.49 ZM 248.08 354.86 C243.10,355.58 239.91,356.72 239.47,358.09 C239.00,359.58 237.75,360.06 231.00,361.34 C229.92,361.54 226.80,363.38 223.51,365.65 C223.98,365.30 224.48,364.91 225.00,364.51 C232.13,359.00 238.53,356.13 248.08,354.86 ZM 252.47 373.36 C256.77,369.71 260.73,366.59 263.86,364.48 C269.78,360.49 273.55,357.37 272.66,357.19 C271.78,357.01 271.35,356.26 271.66,355.44 C272.09,354.31 270.65,354.03 263.34,354.00 C263.64,354.00 263.94,354.00 264.25,354.00 C274.92,354.00 277.00,354.25 277.00,355.50 C277.00,356.33 276.57,357.00 276.05,357.00 C275.53,357.00 270.25,360.25 264.30,364.22 C260.99,366.43 256.88,369.63 252.47,373.36 ZM 478.47 150.67 C478.79,150.79 480.15,151.12 481.75,151.46 C484.34,152.02 485.00,151.84 485.00,150.58 C485.00,149.92 485.07,149.47 485.32,149.30 C485.09,149.83 485.07,151.05 485.30,152.48 C485.61,154.40 485.56,156.16 485.18,156.39 C484.29,156.94 481.54,154.51 478.47,150.67 ZM 540.00 133.54 C538.08,132.82 534.21,131.07 531.42,129.65 L 526.34 127.07 L 526.24 122.75 L 526.50 122.73 L 526.38 120.89 C526.80,122.64 527.64,124.00 529.30,126.17 C531.63,129.23 534.19,131.15 538.05,132.72 C541.07,133.95 543.16,134.70 544.41,134.93 C543.45,134.76 541.99,134.29 540.00,133.54 ZM 292.84 307.94 C292.86,307.80 292.85,307.66 292.83,307.53 C292.72,306.92 292.19,306.38 291.23,305.27 L 289.46 303.22 L 286.13 305.04 C286.45,304.85 286.78,304.64 287.11,304.43 C289.36,303.01 291.31,302.00 291.45,302.18 C293.06,304.19 293.51,305.73 292.84,307.94 ZM 839.93 574.19 C838.15,560.49 834.83,548.67 829.18,536.85 C831.26,541.07 832.99,545.18 834.30,549.06 C837.09,557.31 838.98,565.50 839.93,574.19 ZM 449.16 117.99 C449.58,118.34 450.01,118.70 450.44,119.07 C455.57,123.59 460.40,128.39 464.95,133.48 C460.14,128.16 454.69,122.81 449.16,117.99 ZM 280.89 324.66 C284.06,321.76 287.02,318.36 289.32,314.83 C286.97,318.55 284.19,321.81 280.89,324.66 ZM 282.77 306.94 C280.83,308.08 278.63,309.42 277.00,310.47 C275.18,311.65 273.02,312.84 270.78,313.94 C273.22,312.73 275.56,311.41 277.46,310.13 C280.01,308.41 282.31,307.00 282.57,307.00 C282.61,307.00 282.67,306.98 282.77,306.94 ZM 474.34 144.97 C475.63,146.70 476.90,148.45 478.14,150.24 C477.32,149.20 476.49,148.06 475.66,146.85 C475.24,146.23 474.80,145.60 474.34,144.97 ZM 486.64 149.65 C487.92,150.46 490.13,152.46 493.93,156.02 C490.93,153.21 488.12,150.76 486.64,149.65 ZM 649.29 322.14 C653.73,324.39 660.07,327.50 670.00,332.33 C672.54,333.57 674.25,334.57 675.32,335.47 C674.25,334.57 672.54,333.58 670.00,332.34 C660.78,327.86 654.25,324.67 649.29,322.14 ZM 840.62 591.91 C840.68,589.09 840.67,586.17 840.60,583.41 C840.69,586.18 840.70,589.01 840.62,591.91 ZM 218.32 369.52 C217.76,369.93 217.23,370.27 216.77,370.51 C217.17,370.29 217.67,369.97 218.32,369.52 ZM 215.66 370.88 C215.58,370.87 215.52,370.85 215.48,370.81 C215.47,370.81 215.47,370.80 215.47,370.80 C215.52,370.84 215.58,370.87 215.66,370.88 ZM 526.69 109.81 C526.74,109.70 526.79,109.63 526.84,109.60 C526.84,109.60 526.85,109.59 526.86,109.59 C526.80,109.63 526.75,109.70 526.69,109.81 Z" fill="rgb(69,61,62)"/>
<path d="M 428.25 808.26 C423.71,808.07 420.00,807.49 420.00,806.96 C420.00,806.43 417.55,806.00 414.56,806.00 C411.57,806.00 408.82,805.52 408.46,804.93 C408.09,804.33 405.43,803.97 402.41,804.11 C399.45,804.25 396.72,804.06 396.35,803.68 C395.97,803.31 393.97,803.00 391.89,803.00 C389.82,803.00 387.86,802.59 387.55,802.08 C387.24,801.57 384.05,800.84 380.48,800.46 C376.90,800.08 373.73,799.37 373.43,798.88 C373.13,798.40 371.81,798.00 370.50,798.00 C369.19,798.00 367.83,797.53 367.47,796.96 C367.12,796.39 366.01,796.18 365.00,796.50 C363.99,796.82 362.88,796.61 362.53,796.04 C362.17,795.47 360.81,795.00 359.50,795.00 C358.19,795.00 356.87,794.60 356.57,794.11 C356.27,793.63 354.46,792.93 352.55,792.58 C350.65,792.22 347.83,791.27 346.29,790.47 C344.76,789.67 342.93,789.01 342.23,789.01 C341.53,789.00 339.17,787.87 336.98,786.49 C334.79,785.11 330.57,782.90 327.60,781.59 C324.63,780.27 318.67,776.59 314.35,773.41 C310.03,770.22 304.02,765.81 301.00,763.60 C297.98,761.39 292.73,757.20 289.35,754.29 C285.96,751.38 282.92,749.00 282.59,749.00 C282.26,749.00 280.37,747.20 278.38,745.00 C276.39,742.80 274.14,741.00 273.38,741.00 C272.62,741.00 272.00,740.66 271.99,740.25 C271.98,739.84 269.85,737.24 267.24,734.49 C264.63,731.73 261.37,728.10 259.98,726.43 C258.69,724.88 256.94,723.33 255.93,722.82 C257.23,722.67 256.54,718.71 253.98,715.00 C245.07,702.09 239.18,680.96 238.31,658.79 C235.63,590.65 265.44,534.88 323.05,500.21 C352.88,482.26 387.53,472.00 418.32,472.00 C438.07,472.00 460.26,476.03 461.23,479.79 C461.98,482.66 461.04,483.90 455.04,487.97 C441.24,497.34 433.00,512.78 433.00,529.26 C433.00,537.01 433.09,537.29 436.51,540.71 C440.40,544.60 441.43,544.67 452.25,541.64 C471.27,536.31 481.04,530.53 503.50,511.30 C518.24,498.68 526.55,492.10 534.53,486.74 C537.75,484.57 539.08,482.68 541.22,477.19 C543.15,472.22 544.39,467.87 545.10,462.79 C544.79,466.33 544.21,468.60 543.19,471.86 C543.06,472.27 542.94,472.67 542.82,473.07 C542.78,473.17 542.74,473.28 542.70,473.39 C541.17,477.72 540.06,481.67 540.22,482.15 C540.38,482.63 545.79,479.90 552.24,476.07 C584.84,456.73 629.67,445.00 671.00,445.00 C684.08,445.00 701.70,446.56 705.65,448.06 C709.32,449.45 707.19,451.59 701.25,452.49 C698.67,452.87 694.40,454.29 691.75,455.63 C683.54,459.79 675.95,468.87 681.11,468.36 C681.87,468.29 687.16,467.28 692.86,466.11 C705.49,463.54 729.02,463.21 741.70,465.45 C758.23,468.36 774.44,474.94 785.75,483.35 C789.19,485.91 792.40,488.00 792.89,488.00 C792.92,488.00 792.96,488.01 793.01,488.02 C806.55,500.39 820.69,519.54 829.18,536.85 C834.83,548.67 838.15,560.49 839.93,574.19 C840.27,577.20 840.49,580.27 840.60,583.41 C840.67,586.17 840.68,589.09 840.62,591.91 L 840.62 591.91 C840.52,595.99 840.24,600.22 839.78,604.64 C839.53,606.29 839.24,607.35 838.90,607.56 C838.41,607.87 838.00,609.41 838.00,610.98 C838.00,620.99 829.21,653.85 822.84,667.66 C821.28,671.05 820.00,674.50 820.00,675.34 C820.00,677.28 810.03,694.00 808.87,694.00 C808.39,694.00 808.00,694.60 808.00,695.34 L 808.00 695.35 C808.00,696.08 807.10,697.50 806.00,698.50 C804.90,699.50 804.00,700.74 804.00,701.27 C804.00,701.80 801.75,704.83 799.00,708.00 C796.25,711.17 794.00,714.19 794.00,714.69 C794.00,715.97 766.06,745.00 764.84,745.00 C764.30,745.00 759.38,749.16 753.91,754.23 C748.44,759.31 743.06,763.80 741.96,764.21 C740.86,764.62 739.70,765.62 739.39,766.44 C739.07,767.26 738.01,768.18 737.03,768.49 C735.45,768.99 733.93,770.07 729.29,773.98 C728.63,774.54 727.66,775.00 727.15,775.00 C726.63,775.00 725.95,775.67 725.64,776.50 C725.32,777.33 724.15,778.00 723.03,778.00 C721.91,778.00 721.00,778.36 721.00,778.80 C721.00,780.16 703.91,788.31 703.00,787.38 C700.96,785.29 702.05,783.60 711.75,773.69 C717.39,767.94 722.00,762.91 722.00,762.51 C722.00,762.11 723.12,760.45 724.50,758.82 C725.88,757.18 727.01,755.32 727.02,754.67 C727.03,754.03 727.92,752.38 729.00,751.00 C730.08,749.62 730.97,747.83 730.98,747.00 C731.00,746.17 731.68,744.21 732.51,742.64 C733.33,741.06 734.00,738.50 734.00,736.94 C734.00,735.39 734.45,733.84 735.00,733.50 C736.26,732.72 736.32,723.32 735.08,722.55 C734.57,722.23 733.88,720.74 733.55,719.24 C732.64,715.18 726.16,708.46 720.74,705.96 C714.16,702.93 704.00,703.43 699.00,707.02 C697.10,708.38 694.79,709.95 693.86,710.50 C691.27,712.05 672.87,727.42 669.44,730.89 C667.76,732.60 665.86,734.00 665.22,734.00 C664.57,734.00 663.31,735.12 662.41,736.50 C661.51,737.88 660.26,739.01 659.64,739.01 C658.52,739.03 655.99,740.84 649.52,746.25 C647.71,747.76 645.78,749.00 645.22,749.00 C644.67,749.00 643.95,749.67 643.64,750.50 C643.32,751.33 642.57,752.00 641.96,752.00 C641.36,752.00 639.39,753.12 637.59,754.50 C635.79,755.88 633.79,757.00 633.16,757.00 C632.52,757.00 632.00,757.35 632.00,757.77 C632.00,758.20 630.31,759.43 628.25,760.51 C626.19,761.60 624.28,762.73 624.00,763.04 C623.72,763.34 619.45,765.65 614.50,768.17 C609.55,770.69 601.49,774.83 596.60,777.37 C591.70,779.92 587.09,782.00 586.35,782.00 C585.61,782.00 585.00,782.41 585.00,782.92 C585.00,783.43 583.54,784.12 581.75,784.46 C578.73,785.04 568.47,788.62 561.50,791.52 C559.85,792.21 556.70,793.37 554.50,794.09 C552.30,794.82 550.05,795.73 549.50,796.12 C548.95,796.51 546.70,797.15 544.50,797.54 C542.30,797.94 540.07,798.51 539.55,798.81 C539.03,799.12 537.68,799.47 536.55,799.60 C533.60,799.94 525.80,802.08 523.76,803.12 C522.81,803.60 520.47,804.00 518.57,804.00 C516.67,804.00 514.86,804.41 514.55,804.92 C514.24,805.43 509.47,806.16 503.97,806.55 C498.46,806.94 493.72,807.65 493.42,808.13 C492.92,808.94 447.07,809.02 428.25,808.26 ZM 293.50 274.71 C287.26,276.86 282.64,279.12 277.69,282.58 C282.63,279.13 287.31,276.83 293.99,274.43 C298.10,272.95 301.93,271.17 302.49,270.48 C303.74,268.93 308.86,267.96 309.58,269.13 C310.23,270.18 321.34,270.23 325.23,269.46 C323.99,269.83 322.02,270.00 319.25,270.00 C311.12,270.00 302.73,271.54 293.50,274.71 ZM 544.88 425.84 C543.52,410.76 540.62,402.70 534.07,393.01 C540.80,402.95 543.76,410.98 544.88,425.84 ZM 252.98 719.68 C252.05,718.13 248.92,714.30 245.50,710.53 C245.29,710.30 245.08,710.07 244.87,709.84 C245.08,710.06 245.28,710.28 245.49,710.50 C249.59,714.90 252.96,718.97 252.97,719.55 C252.97,719.59 252.98,719.63 252.98,719.68 ZM 326.42 267.06 C325.80,266.23 324.43,265.49 322.50,264.97 C324.36,265.38 325.51,265.91 326.05,266.56 C326.20,266.74 326.32,266.90 326.42,267.06 ZM 193.90 631.23 C193.72,630.47 192.61,627.65 190.47,622.50 C193.40,629.53 194.18,631.51 194.13,631.73 C194.12,631.78 194.16,631.93 194.25,632.16 C194.06,631.73 193.94,631.41 193.90,631.23 ZM 233.53 696.15 C232.58,695.05 231.48,693.71 230.68,692.65 C229.48,691.09 227.60,688.63 226.49,687.17 C229.93,691.68 231.83,694.11 233.53,696.15 ZM 314.58 264.10 C310.82,263.94 305.91,263.85 301.25,263.88 C306.65,263.85 311.06,263.92 314.58,264.10 ZM 200.29 644.39 C203.93,651.38 208.15,659.21 209.91,662.00 C208.08,659.09 203.91,651.38 200.29,644.39 ZM 237.98 701.78 C237.78,701.51 237.64,701.31 237.57,701.17 C237.41,700.90 237.19,700.56 236.93,700.19 C237.48,700.91 237.87,701.49 237.98,701.78 ZM 296.18 156.02 C295.95,160.43 295.95,166.57 296.18,170.98 C296.07,168.89 296.00,166.33 296.00,163.50 C296.00,160.67 296.07,158.11 296.18,156.02 Z" fill="rgb(93,93,93)"/>
<path d="M 508.24 168.00 C507.75,168.00 506.29,166.88 505.00,165.50 C506.29,166.88 507.76,168.00 508.27,168.00 C508.78,168.00 510.39,168.84 511.85,169.87 C513.31,170.89 515.21,171.46 516.08,171.12 C518.46,170.19 517.12,166.06 513.40,161.78 C517.97,166.51 521.16,171.14 520.62,172.54 C519.81,174.67 518.38,174.36 513.50,171.00 C511.10,169.35 508.74,168.00 508.24,168.00 ZM 292.84 307.94 C293.51,305.74 293.06,304.21 291.47,302.21 C297.46,299.38 296.94,301.32 292.83,308.77 C292.34,309.66 291.84,310.53 291.34,311.38 C291.35,311.35 291.36,311.33 291.38,311.30 C291.48,311.09 291.58,310.90 291.67,310.71 C292.39,309.32 292.78,308.55 292.84,307.94 ZM 582.09 203.50 C580.41,196.24 577.61,189.25 573.90,182.79 C577.58,189.17 580.39,196.08 582.13,203.25 C583.39,208.47 584.75,212.00 585.50,212.00 C587.74,212.00 589.14,209.23 590.30,202.48 C590.44,201.65 590.56,200.89 590.65,200.19 C590.44,203.29 589.84,206.25 588.87,208.60 C588.21,210.20 587.74,211.79 587.81,212.15 C587.88,212.51 587.28,213.35 586.48,214.02 C586.40,214.08 586.32,214.15 586.25,214.21 C585.87,214.53 585.60,214.77 585.35,214.74 C584.63,214.66 584.15,212.36 582.09,203.50 ZM 268.53 332.56 C263.86,334.69 258.44,336.44 252.00,338.01 C257.98,336.55 263.23,334.82 267.84,332.77 C268.07,332.70 268.30,332.63 268.53,332.56 ZM 589.43 181.74 C590.73,181.91 593.57,185.56 597.70,192.60 C593.74,185.86 590.84,182.17 589.43,181.74 ZM 282.77 306.94 C282.67,306.98 282.61,307.00 282.57,307.00 C282.56,307.00 282.54,307.00 282.52,307.01 C282.92,306.77 283.26,306.57 283.50,306.44 C284.72,305.76 285.83,305.14 286.86,304.59 C286.61,304.74 286.37,304.90 286.13,305.04 L 285.48 305.40 C284.73,305.81 283.79,306.34 282.77,306.94 ZM 590.18 191.18 C590.04,190.59 589.88,189.96 589.70,189.28 C589.53,188.63 589.38,188.02 589.25,187.46 C589.35,187.81 589.45,188.19 589.56,188.57 C589.81,189.41 590.01,190.28 590.18,191.18 ZM 271.53 313.57 C271.28,313.69 271.03,313.82 270.78,313.94 C268.95,314.84 267.07,315.69 265.27,316.42 C267.32,315.59 269.47,314.61 271.53,313.57 Z" fill="rgb(112,56,60)"/>
<path d="M 222.83 302.83 C217.43,301.21 216.10,302.74 219.43,306.74 C218.82,306.17 218.25,305.61 217.75,305.08 C215.14,302.30 213.00,299.80 213.00,299.51 C213.00,298.45 216.91,299.05 218.18,300.32 C219.71,301.85 222.58,302.93 226.52,303.51 C224.99,303.32 223.68,303.09 222.83,302.83 ZM 231.11 315.33 C234.78,317.49 238.41,319.30 240.67,319.93 C238.20,319.24 234.72,317.52 231.11,315.33 ZM 234.11 304.00 C239.45,303.99 244.17,303.25 249.05,301.43 C244.18,303.26 239.47,304.00 234.21,304.00 C234.18,304.00 234.14,304.00 234.11,304.00 Z" fill="rgb(145,55,68)"/>
<path d="M 442.68 473.80 C435.29,472.71 426.59,472.00 418.32,472.00 C408.85,472.00 399.01,472.97 389.07,474.84 C392.04,474.19 395.18,473.55 398.50,472.89 C412.33,470.15 423.25,470.19 438.62,473.04 C440.05,473.30 441.41,473.56 442.68,473.80 ZM 459.82 478.32 C460.66,478.80 461.10,479.28 461.23,479.79 C461.10,479.30 460.62,478.81 459.82,478.32 ZM 352.07 485.75 C353.23,485.28 354.40,484.82 355.58,484.38 C354.40,484.82 353.23,485.28 352.07,485.75 Z" fill="rgb(151,151,151)"/>
<path d="M 218.32 369.52 C217.67,369.97 217.17,370.29 216.77,370.51 C216.29,370.76 215.90,370.89 215.66,370.88 C215.58,370.87 215.52,370.84 215.47,370.80 C215.22,370.39 216.78,366.66 218.98,362.41 C219.31,361.78 219.64,361.17 219.97,360.57 C217.56,366.23 220.19,367.82 226.10,363.54 C229.48,361.09 232.77,359.21 236.37,357.79 C232.40,359.39 228.80,361.57 225.00,364.51 C224.48,364.91 223.98,365.30 223.51,365.65 C221.90,366.77 220.24,367.99 218.77,369.17 C218.62,369.29 218.47,369.41 218.32,369.52 ZM 589.43 181.74 C590.84,182.17 593.74,185.86 597.70,192.60 C602.05,200.02 604.02,203.78 605.50,208.42 C604.08,204.06 602.21,200.41 598.33,193.75 C592.54,183.82 590.71,183.12 590.41,192.24 C590.34,191.90 590.26,191.55 590.18,191.18 C590.01,190.28 589.81,189.41 589.56,188.57 C589.45,188.19 589.35,187.81 589.25,187.46 C588.35,183.51 588.45,181.62 589.43,181.74 ZM 589.03 208.50 C588.29,210.15 587.74,211.79 587.81,212.15 C587.74,211.79 588.21,210.20 588.87,208.60 C589.16,207.89 589.42,207.12 589.65,206.31 C589.47,207.24 589.26,207.98 589.03,208.50 ZM 225.43 352.19 C227.06,350.18 228.46,349.00 229.34,349.00 C228.60,349.00 227.07,350.32 225.43,352.19 Z" fill="rgb(176,49,78)"/>
<path d="M 649.29 322.14 C654.25,324.67 660.78,327.86 670.00,332.34 C672.54,333.58 674.25,334.57 675.32,335.47 C676.25,336.26 676.71,336.97 676.82,337.73 C677.50,342.51 665.53,353.66 653.00,360.36 L 653.00 356.85 C653.00,352.87 649.10,343.80 646.77,342.36 C646.07,341.92 643.74,341.33 641.58,341.04 C639.43,340.74 637.51,340.05 637.33,339.50 C636.83,337.99 646.23,338.66 647.09,340.20 C647.49,340.91 649.22,343.26 650.93,345.42 C652.64,347.57 654.30,350.35 654.61,351.59 C655.30,354.33 657.51,355.33 659.96,354.02 C663.07,352.36 674.09,339.71 673.79,338.15 C673.63,337.34 671.82,335.74 669.78,334.59 C667.73,333.44 665.03,331.62 663.78,330.54 C662.52,329.47 657.83,326.70 653.35,324.40 C649.10,322.21 645.76,320.43 642.86,318.78 C644.55,319.71 646.56,320.76 649.29,322.14 ZM 378.85 326.61 C374.64,329.07 369.13,332.90 366.60,335.12 C361.48,339.62 361.34,339.63 363.56,335.19 C365.10,332.10 372.93,326.00 375.35,326.00 C376.04,326.00 378.74,324.65 381.34,323.00 C383.94,321.35 386.44,320.00 386.88,320.00 C387.33,320.00 389.68,318.66 392.10,317.02 C394.52,315.38 397.17,314.01 398.00,313.98 C398.83,313.96 401.30,313.06 403.50,312.00 C405.70,310.94 408.78,310.05 410.34,310.03 C412.32,310.01 413.35,309.40 413.71,308.01 C414.12,306.43 414.78,306.15 416.86,306.64 C422.30,307.94 422.73,308.78 418.78,310.44 C416.74,311.30 414.25,312.00 413.25,312.00 C408.48,312.00 391.65,319.15 378.85,326.61 ZM 582.09 203.50 C582.36,204.65 582.60,205.69 582.82,206.62 C582.58,205.62 582.33,204.57 582.08,203.50 C578.44,187.86 569.84,174.58 557.50,165.53 C555.30,163.91 552.92,161.80 552.21,160.82 C551.51,159.85 549.14,158.58 546.96,157.99 C544.78,157.40 543.00,156.54 543.00,156.08 C543.00,155.62 541.54,154.69 539.75,154.02 C527.45,149.39 511.88,142.00 507.54,138.73 C504.02,136.08 498.24,130.12 494.29,125.34 C494.31,125.35 494.33,125.36 494.35,125.36 C498.23,129.88 503.47,134.34 508.17,136.88 C523.24,145.03 533.83,150.00 536.10,150.00 C537.36,150.00 546.99,155.18 551.46,158.26 C560.55,164.52 568.26,173.03 573.90,182.79 L 573.90 182.80 C577.62,189.25 580.41,196.25 582.09,203.50 ZM 589.03 208.50 C589.26,207.98 589.47,207.24 589.65,206.31 C590.17,204.45 590.50,202.35 590.65,200.19 C591.07,197.13 591.02,195.14 590.41,192.24 C590.71,183.12 592.54,183.82 598.33,193.75 C602.21,200.41 604.08,204.06 605.50,208.42 C606.16,210.47 606.72,212.70 607.36,215.50 C608.20,219.19 608.86,222.53 609.37,225.90 C608.08,218.29 606.13,210.75 605.14,210.00 C604.78,209.73 603.16,206.80 601.54,203.50 C597.82,195.90 594.07,190.84 592.76,191.65 C592.16,192.02 591.96,194.67 592.29,198.21 C592.64,202.11 592.37,205.06 591.50,206.82 C590.78,208.30 589.62,210.74 588.92,212.25 C587.61,215.10 585.22,215.93 584.56,213.75 C584.49,213.52 584.32,212.85 584.08,211.87 C584.63,213.98 584.96,214.70 585.35,214.74 C585.60,214.77 585.87,214.53 586.25,214.21 C586.32,214.15 586.40,214.08 586.48,214.02 C587.28,213.35 587.88,212.51 587.81,212.15 C587.74,211.79 588.29,210.15 589.03,208.50 ZM 412.00 176.93 C412.00,178.62 411.55,180.00 411.00,180.00 C409.42,180.00 409.84,172.68 411.56,170.22 C413.37,167.63 417.65,167.27 420.56,169.47 C421.63,170.28 423.53,170.95 424.79,170.97 C426.64,170.99 426.90,170.67 426.17,169.25 C424.91,166.80 424.02,159.00 425.00,159.00 C425.44,159.00 426.76,162.14 427.92,165.97 C429.09,169.80 430.30,173.62 430.63,174.47 C431.53,176.83 428.94,176.34 422.91,173.02 C419.93,171.38 416.73,170.03 415.79,170.02 C413.62,170.00 412.00,172.96 412.00,176.93 ZM 532.65 128.17 C533.57,129.18 535.19,130.00 536.27,130.00 C538.22,130.00 538.28,129.42 536.89,124.00 C536.67,123.18 535.26,120.62 533.75,118.32 C533.22,117.51 532.72,116.71 532.30,115.98 C532.85,116.87 533.54,117.88 534.27,118.88 L 534.76 119.55 C537.11,122.95 540.19,126.99 542.75,129.97 C546.09,133.85 546.78,135.33 544.41,134.93 C543.16,134.70 541.07,133.95 538.05,132.72 C534.19,131.15 531.63,129.23 529.30,126.17 C527.64,124.00 526.80,122.64 526.38,120.89 L 526.30 119.62 C526.62,120.76 527.26,121.25 528.50,121.82 C529.88,122.44 531.00,123.72 531.00,124.65 C531.00,125.58 531.74,127.17 532.65,128.17 ZM 225.43 352.19 C227.07,350.32 228.60,349.00 229.34,349.00 C229.80,349.00 231.27,348.18 232.79,347.09 C230.43,348.89 228.83,350.64 228.52,352.02 C228.20,353.41 226.38,355.79 224.47,357.32 C220.14,360.77 219.76,363.52 223.75,362.55 C225.26,362.18 228.94,360.77 231.92,359.42 C234.24,358.36 236.69,357.47 239.32,356.74 C238.31,357.06 237.33,357.41 236.37,357.79 L 236.37 357.79 C232.77,359.21 229.48,361.09 226.10,363.54 C220.19,367.82 217.56,366.23 219.97,360.57 C221.83,357.17 223.75,354.25 225.43,352.19 ZM 314.58 264.10 C311.06,263.92 306.65,263.85 301.25,263.88 C298.56,263.90 296.32,263.89 294.47,263.86 C296.32,263.63 297.97,263.17 298.64,262.50 C300.79,260.36 314.26,260.40 316.42,262.56 C317.28,263.42 319.55,264.38 321.47,264.69 C322.41,264.84 323.27,265.08 324.00,265.38 C323.56,265.23 323.06,265.10 322.50,264.97 C321.81,264.79 321.05,264.63 320.22,264.51 C319.17,264.35 317.14,264.21 314.58,264.10 ZM 486.64 149.65 C488.12,150.76 490.93,153.21 493.93,156.02 C495.34,157.35 496.70,158.59 497.89,159.65 C497.51,159.45 497.14,159.41 496.88,159.58 C496.30,159.94 494.07,158.52 491.93,156.43 C487.58,152.18 486.09,152.40 488.00,157.00 C488.70,158.69 489.08,160.25 488.86,160.48 C488.49,160.85 486.14,158.74 483.23,155.66 C484.13,156.34 484.81,156.62 485.18,156.39 C485.56,156.16 485.61,154.40 485.30,152.48 C485.07,151.05 485.09,149.83 485.32,149.30 C485.56,149.13 485.97,149.23 486.64,149.65 ZM 251.65 318.56 C255.02,318.84 257.02,318.91 259.06,318.53 C257.95,318.81 257.01,318.97 256.31,318.97 C254.55,318.99 252.84,319.45 252.50,320.00 C251.69,321.31 245.51,321.27 240.67,319.93 C238.20,319.24 234.72,317.52 231.11,315.33 C230.80,315.14 230.49,314.95 230.18,314.76 C233.48,316.53 236.15,317.34 239.28,317.58 C242.15,317.79 247.72,318.24 251.65,318.56 ZM 520.00 300.10 C520.00,301.20 518.46,301.13 514.50,299.88 C512.85,299.35 509.74,298.60 507.58,298.20 C503.68,297.48 501.31,295.00 504.51,295.00 C507.40,295.00 520.00,299.15 520.00,300.10 ZM 421.83 138.00 C421.96,145.07 420.99,146.73 418.96,142.93 C418.14,141.39 418.18,139.59 419.12,135.93 C419.81,133.22 420.68,131.00 421.04,131.00 C421.40,131.00 421.76,134.15 421.83,138.00 ZM 302.93 380.86 C298.66,382.22 296.00,382.32 296.00,381.12 C296.00,379.52 298.45,378.28 302.62,377.75 C306.80,377.22 311.03,378.45 307.97,379.30 C307.16,379.53 304.89,380.23 302.93,380.86 ZM 402.00 306.20 C393.55,307.85 391.50,307.92 388.73,306.65 C387.20,305.95 386.15,305.18 386.39,304.94 C386.63,304.70 391.25,304.69 396.66,304.91 C405.64,305.29 406.10,305.40 402.00,306.20 ZM 345.00 360.46 C345.00,360.71 341.85,362.50 338.00,364.43 C334.15,366.36 331.00,367.70 331.00,367.41 C331.00,365.56 333.38,363.00 335.11,363.00 C336.23,363.00 337.82,362.33 338.64,361.50 C339.99,360.15 345.00,359.33 345.00,360.46 ZM 615.00 334.03 C615.00,335.19 614.92,335.18 608.25,333.24 C602.42,331.54 601.37,330.00 606.05,330.00 C609.43,330.00 615.00,332.51 615.00,334.03 ZM 358.14 376.03 C355.78,378.00 352.97,378.67 353.04,377.25 C353.10,375.84 355.93,371.50 355.96,372.75 C355.98,373.44 357.01,374.01 358.25,374.03 L 360.50 374.07 ZM 437.43 199.48 C435.53,200.91 426.99,201.68 428.38,200.28 C429.31,199.36 438.37,197.05 438.93,197.60 C439.16,197.83 438.49,198.68 437.43,199.48 ZM 314.71 247.72 C312.13,247.33 306.27,249.52 300.60,252.41 C304.31,250.43 308.37,248.55 312.25,247.09 C314.47,246.25 315.23,245.71 314.63,243.85 C315.82,245.81 316.56,245.78 318.44,245.38 C321.23,244.79 321.30,244.85 319.66,246.49 C318.46,247.68 316.93,248.06 314.71,247.72 ZM 322.96 341.07 C322.40,342.13 321.31,343.00 320.55,343.00 C318.54,343.00 320.18,337.59 322.32,337.18 C324.23,336.81 324.47,338.25 322.96,341.07 ZM 495.76 144.14 C493.81,141.89 492.47,140.08 491.89,138.87 C489.01,132.82 487.81,129.74 487.10,125.65 C488.19,130.89 490.21,135.29 492.71,137.70 C493.97,138.91 495.01,140.94 495.02,142.20 C495.03,142.71 495.28,143.36 495.76,144.14 ZM 357.00 232.86 C357.00,233.49 355.99,234.00 354.75,234.00 C352.62,233.99 352.66,233.86 355.50,231.53 C357.15,230.18 358.95,229.07 359.50,229.07 C360.05,229.07 359.71,229.66 358.75,230.39 C357.79,231.12 357.00,232.23 357.00,232.86 ZM 375.00 212.33 C375.00,214.40 374.51,215.00 372.85,215.00 C370.72,215.00 370.71,214.97 372.58,212.75 C373.63,211.51 374.60,210.31 374.74,210.08 C374.88,209.85 375.00,210.87 375.00,212.33 ZM 426.45 101.51 C429.45,103.43 432.19,105.00 432.56,105.00 C432.19,105.00 429.54,103.49 426.66,101.64 C423.37,99.54 420.42,98.39 418.77,98.57 C417.31,98.72 415.59,98.21 414.94,97.43 C414.27,96.62 413.61,96.17 412.92,96.11 C414.74,95.57 416.65,96.07 418.78,97.56 C420.00,98.41 421.00,98.87 421.00,98.57 C421.00,98.27 423.45,99.59 426.45,101.51 ZM 420.84 342.12 C419.21,343.16 418.53,343.20 417.67,342.33 C416.28,340.95 417.09,340.29 419.59,340.77 C421.48,341.13 421.82,341.50 420.84,342.12 ZM 513.77 148.19 C513.15,150.04 511.00,150.35 511.00,148.58 C511.00,147.71 511.71,147.00 512.58,147.00 C513.45,147.00 513.99,147.53 513.77,148.19 ZM 486.18 113.65 C486.32,113.16 486.71,113.54 487.43,114.44 C487.94,115.25 488.46,116.19 489.00,117.25 C489.01,117.32 489.04,117.41 489.08,117.53 C487.55,115.18 486.52,115.41 486.34,118.02 C486.26,117.12 486.20,116.36 486.16,115.75 C486.13,114.85 486.14,114.12 486.18,113.65 ZM 642.80 365.15 C630.78,370.47 619.53,374.65 608.35,377.87 C619.00,374.72 630.09,370.58 642.80,365.15 ZM 498.95 160.59 C500.64,162.06 501.81,163.00 502.01,163.00 C502.36,163.00 503.71,164.12 505.00,165.50 C503.71,164.12 502.16,163.00 501.57,163.00 C500.97,163.00 499.91,162.08 499.21,160.96 C499.13,160.83 499.04,160.70 498.95,160.59 ZM 311.72 237.97 C309.44,233.49 307.25,228.11 305.39,222.64 C307.10,227.44 309.21,232.56 311.72,237.97 ZM 474.34 144.97 C474.80,145.60 475.24,146.23 475.66,146.85 C475.72,146.93 475.78,147.02 475.84,147.10 C475.13,146.21 474.46,145.34 473.85,144.50 C471.53,141.34 469.11,138.29 466.59,135.34 C469.28,138.45 471.86,141.65 474.34,144.97 ZM 515.90 164.51 C519.61,168.66 521.12,171.26 520.62,172.54 C521.06,171.41 519.07,168.19 515.90,164.51 ZM 610.56 237.97 C610.86,243.45 610.93,249.87 610.85,258.29 C610.90,250.61 610.79,243.42 610.56,237.97 ZM 509.80 158.22 C507.46,156.07 505.26,153.99 503.27,152.03 C505.72,154.29 507.89,156.35 509.80,158.22 ZM 271.53 313.57 L 271.52 313.57 C269.78,314.46 267.96,315.29 266.19,316.04 C269.25,314.71 273.02,312.81 275.57,311.33 C274.32,312.09 272.95,312.84 271.53,313.57 ZM 222.83 302.83 C218.60,301.56 217.10,302.41 217.85,304.35 C216.95,302.20 218.69,301.59 222.83,302.83 ZM 528.44 110.13 C527.86,109.75 527.31,109.51 526.95,109.54 C527.33,109.40 527.84,109.60 528.44,110.13 ZM 324.54 269.63 C324.79,269.58 325.02,269.52 325.23,269.46 C325.94,269.32 326.41,269.15 326.53,268.96 C326.37,269.21 325.63,269.45 324.54,269.63 ZM 233.60 346.49 C234.04,346.16 234.61,345.77 235.27,345.36 C234.69,345.73 234.13,346.11 233.60,346.49 ZM 252.00 338.02 C251.70,338.09 251.40,338.17 251.10,338.25 C251.41,338.16 251.71,338.09 252.00,338.01 C253.91,337.55 255.73,337.06 257.47,336.56 C255.73,337.06 253.91,337.55 252.00,338.02 ZM 219.46 306.76 L 219.43 306.74 C219.40,306.69 219.36,306.65 219.33,306.61 C219.37,306.66 219.41,306.71 219.46,306.76 ZM 287.04 262.56 C287.03,262.62 287.02,262.68 287.02,262.74 C287.02,262.68 287.02,262.62 287.04,262.56 Z" fill="rgb(208,57,89)"/>
<path d="M 252.98 719.68 C252.98,719.63 252.97,719.59 252.97,719.55 C252.96,718.97 249.59,714.90 245.49,710.50 C245.28,710.28 245.08,710.06 244.87,709.84 C241.83,706.46 239.06,703.22 237.98,701.78 C237.87,701.49 237.48,700.91 236.93,700.19 C236.66,699.81 236.35,699.40 236.02,699.00 C237.93,698.90 237.51,697.32 234.47,693.10 C227.59,683.52 220.09,661.63 216.40,640.32 C214.25,627.96 213.42,593.53 214.95,580.18 C217.98,553.63 227.57,524.51 242.03,498.00 C269.65,447.34 316.09,407.54 369.50,388.72 C386.33,382.80 390.12,381.75 410.50,377.38 C425.36,374.19 429.72,373.67 445.18,373.26 C464.53,372.73 472.31,373.63 494.50,378.93 C501.10,380.50 510.10,382.56 514.50,383.50 C518.90,384.44 523.63,385.55 525.01,385.97 C528.47,387.02 551.99,386.63 567.17,385.56 C561.88,386.06 556.44,386.42 550.79,386.64 C541.83,387.00 533.72,387.57 532.77,387.91 C531.23,388.46 531.37,389.02 534.07,393.01 C540.80,402.95 543.76,410.98 544.88,425.84 C545.28,431.20 545.45,437.45 545.46,445.00 C545.48,454.02 545.43,459.09 545.10,462.79 C544.39,467.87 543.15,472.22 541.22,477.19 C539.08,482.68 537.75,484.57 534.53,486.74 C526.55,492.10 518.24,498.68 503.50,511.30 C481.04,530.53 471.27,536.31 452.25,541.64 C441.43,544.67 440.40,544.60 436.51,540.71 C433.09,537.29 433.00,537.01 433.00,529.26 C433.00,512.78 441.24,497.34 455.04,487.97 C461.04,483.90 461.98,482.66 461.23,479.79 C461.10,479.30 460.62,478.81 459.82,478.32 C457.07,476.62 450.64,474.99 442.68,473.80 C441.41,473.56 440.05,473.30 438.62,473.04 C423.25,470.19 412.33,470.15 398.50,472.89 C395.18,473.55 392.04,474.19 389.07,474.84 C377.92,476.93 366.62,480.15 355.55,484.39 C354.38,484.83 353.23,485.29 352.07,485.75 L 352.07 485.75 C342.10,489.78 332.34,494.62 323.05,500.21 C265.44,534.88 235.63,590.65 238.31,658.79 C239.18,680.96 245.07,702.09 253.98,715.00 C255.60,717.34 256.47,719.79 256.56,721.31 C256.25,720.46 256.00,719.52 256.00,719.16 C256.00,718.79 255.15,717.95 254.11,717.30 C252.44,716.26 252.28,716.37 252.75,718.31 C253.02,719.39 253.59,720.75 254.10,721.52 C253.72,721.09 253.40,720.60 253.23,720.14 C253.18,720.02 253.10,719.87 252.98,719.68 ZM 299.99 197.64 C299.91,195.02 299.50,193.00 299.00,193.00 C298.42,193.00 298.00,189.69 298.00,185.06 C298.00,180.69 297.55,176.84 297.00,176.50 C296.65,176.28 296.36,174.19 296.18,170.98 L 296.18 170.97 C295.95,166.57 295.95,160.43 296.18,156.03 L 296.18 156.02 C296.36,152.81 296.65,150.72 297.00,150.50 C297.55,150.16 298.00,148.14 298.00,146.02 C298.00,143.90 298.64,140.89 299.41,139.33 C300.19,137.77 301.64,134.81 302.64,132.75 C305.14,127.58 308.60,127.65 315.00,133.00 C317.63,135.20 320.23,137.00 320.78,137.00 C321.33,137.00 322.05,137.68 322.36,138.50 C322.68,139.32 323.85,140.00 324.97,140.00 C326.09,140.00 327.00,140.44 327.00,140.98 C327.00,141.52 328.12,142.24 329.50,142.59 C330.88,142.93 332.00,143.51 332.00,143.86 C332.00,144.22 333.46,145.12 335.25,145.85 C337.04,146.59 340.87,148.28 343.78,149.60 C346.68,150.92 349.72,152.00 350.53,152.00 C351.34,152.00 352.00,152.48 352.00,153.06 C352.00,153.64 352.47,153.83 353.04,153.47 C353.62,153.12 354.63,153.25 355.29,153.77 C355.96,154.29 359.55,155.52 363.27,156.51 C369.85,158.26 370.21,158.25 375.65,156.40 C378.73,155.36 381.45,153.82 381.68,153.00 C381.81,152.54 382.13,151.73 382.52,150.83 C382.01,152.71 381.58,155.26 381.41,157.66 C381.01,163.38 380.97,166.04 379.63,167.18 C378.46,168.16 376.33,168.00 372.13,167.67 C371.66,167.63 371.17,167.59 370.64,167.55 C355.07,166.38 350.33,164.90 324.72,153.12 C315.34,148.80 314.58,148.91 315.35,154.53 C315.69,157.02 317.09,161.41 318.46,164.28 C320.80,169.20 353.03,213.02 360.27,221.14 L 363.62 224.89 L 360.31 228.50 C360.11,228.71 359.92,228.93 359.73,229.14 C359.69,229.09 359.62,229.07 359.50,229.07 C359.09,229.07 357.98,229.69 356.75,230.57 C361.49,226.23 355.16,225.88 348.02,230.60 C345.81,232.07 343.93,233.77 343.85,234.38 C343.76,235.00 343.65,236.18 343.60,237.00 C343.51,238.36 332.20,242.60 323.82,244.42 C322.35,244.74 320.42,245.73 319.53,246.61 C318.94,247.20 318.19,247.58 317.27,247.75 C318.21,247.57 318.99,247.16 319.66,246.49 C321.30,244.85 321.23,244.79 318.44,245.38 C316.56,245.78 315.82,245.81 314.63,243.85 C314.33,242.91 313.67,241.62 312.67,239.79 C312.35,239.20 312.03,238.60 311.72,237.97 C309.21,232.56 307.10,227.44 305.39,222.64 C302.62,214.45 300.61,206.08 300.22,200.25 C300.16,199.33 300.08,198.45 299.99,197.64 ZM 217.17 674.09 C216.43,673.32 215.42,671.75 214.92,670.60 C215.42,671.75 216.44,673.32 217.19,674.09 C217.93,674.87 220.23,677.97 222.28,681.00 C224.14,683.73 225.51,685.76 226.61,687.33 L 226.49 687.17 L 226.47 687.15 C225.36,685.69 223.11,682.47 221.47,680.00 C219.84,677.53 217.90,674.87 217.17,674.09 ZM 357.00 232.86 C357.00,232.27 357.70,231.25 358.58,230.53 C357.63,231.73 357.00,232.72 357.00,233.06 C357.00,233.50 356.25,233.88 355.24,233.97 C356.25,233.86 357.00,233.40 357.00,232.86 ZM 233.53 696.15 C232.98,695.49 232.42,694.80 231.79,694.01 C231.93,694.17 232.08,694.33 232.24,694.50 C233.11,695.45 233.88,696.40 234.39,697.13 C234.13,696.84 233.84,696.51 233.53,696.15 ZM 385.00 144.42 C385.00,143.63 385.90,141.31 387.00,139.26 C385.90,141.31 385.00,143.69 385.00,144.53 C385.00,144.92 384.86,145.49 384.62,146.12 C384.85,145.41 385.00,144.78 385.00,144.42 Z" fill="rgb(203,203,203)"/>
<path d="M 486.53 121.20 C486.53,120.38 486.46,119.38 486.35,118.17 L 486.34 118.02 C486.52,115.41 487.55,115.18 489.08,117.53 C489.36,118.33 490.38,120.22 491.59,122.13 C492.79,124.05 493.63,125.07 494.29,125.34 C498.24,130.12 504.02,136.08 507.54,138.73 C511.88,142.00 527.45,149.39 539.75,154.02 C541.54,154.69 543.00,155.62 543.00,156.08 C543.00,156.54 544.78,157.40 546.96,157.99 C547.10,158.03 547.24,158.07 547.38,158.11 C547.26,158.12 547.12,158.14 546.98,158.16 C545.72,158.35 544.57,159.29 544.43,160.25 C544.26,161.39 544.84,162.00 546.09,162.00 C547.14,162.00 548.00,161.81 548.00,161.58 C548.00,161.35 548.29,160.41 548.64,159.49 C548.78,159.14 548.85,158.86 548.85,158.64 C550.37,159.29 551.71,160.13 552.21,160.82 C552.92,161.80 555.30,163.91 557.50,165.53 C569.84,174.58 578.44,187.86 582.08,203.50 C582.33,204.57 582.58,205.62 582.82,206.62 L 582.82 206.62 C583.35,208.94 583.75,210.64 584.08,211.87 C584.32,212.85 584.49,213.52 584.56,213.75 C585.22,215.93 587.61,215.10 588.92,212.25 C589.62,210.74 590.78,208.30 591.50,206.82 C592.37,205.06 592.64,202.11 592.29,198.21 C591.96,194.67 592.16,192.02 592.76,191.65 C594.07,190.84 597.82,195.90 601.54,203.50 C603.16,206.80 604.78,209.73 605.14,210.00 C606.13,210.75 608.08,218.29 609.37,225.90 C609.94,229.68 610.33,233.52 610.56,237.97 C610.79,243.42 610.90,250.60 610.85,258.28 L 610.85 258.29 C610.84,259.55 610.83,260.85 610.81,262.20 L 610.50 286.50 L 613.24 292.25 C613.91,293.67 614.62,294.97 615.25,295.98 C617.89,300.46 620.75,303.18 627.50,308.38 C631.22,311.25 633.91,313.28 636.97,315.25 C637.59,315.69 638.28,316.13 639.00,316.56 C640.21,317.29 641.42,317.99 642.86,318.78 C645.76,320.43 649.10,322.21 653.35,324.40 C657.83,326.70 662.52,329.47 663.78,330.54 C665.03,331.62 667.73,333.44 669.78,334.59 C671.82,335.74 673.63,337.34 673.79,338.15 C674.09,339.71 663.07,352.36 659.96,354.02 C657.51,355.33 655.30,354.33 654.61,351.59 C654.30,350.35 652.64,347.57 650.93,345.42 C649.22,343.26 647.49,340.91 647.09,340.20 C646.23,338.66 636.83,337.99 637.33,339.50 C637.48,339.95 638.80,340.50 640.46,340.84 C638.98,340.60 636.93,340.11 635.13,339.55 C632.59,338.76 626.90,337.37 622.50,336.47 C620.23,336.00 617.45,335.36 614.84,334.71 C614.99,334.59 615.00,334.35 615.00,334.03 C615.00,332.51 609.43,330.00 606.05,330.00 C603.15,330.00 602.45,330.59 603.73,331.45 C591.54,327.27 566.67,317.94 561.31,315.43 C558.46,314.09 555.83,313.00 555.46,313.00 C555.10,313.00 553.38,312.38 551.65,311.62 C545.74,309.04 529.51,303.84 518.24,300.83 C519.47,300.99 520.00,300.74 520.00,300.10 C520.00,299.15 507.40,295.00 504.51,295.00 C502.02,295.00 502.90,296.49 505.23,297.49 C504.43,297.26 503.83,297.06 503.50,296.93 C502.40,296.48 498.91,295.56 495.75,294.90 C492.59,294.23 490.00,293.36 490.00,292.97 C490.00,291.75 496.31,290.91 497.39,291.99 C498.99,293.59 503.14,293.17 504.71,291.25 C505.50,290.29 505.82,290.13 505.42,290.90 C504.93,291.85 505.08,292.07 505.89,291.57 C506.81,291.00 506.82,290.49 505.94,289.42 C505.30,288.65 504.42,288.24 503.99,288.51 C503.56,288.77 502.95,288.32 502.64,287.49 C502.32,286.67 502.45,286.00 502.92,286.00 C504.03,286.00 504.91,280.06 503.88,279.43 C502.88,278.81 501.00,282.29 501.00,284.77 C501.00,286.90 496.45,289.53 495.48,287.96 C494.63,286.59 488.26,286.77 487.38,288.19 C486.98,288.85 487.18,289.56 487.82,289.77 C488.47,289.99 489.00,290.85 489.00,291.68 C489.00,292.91 488.10,293.08 484.25,292.58 C481.64,292.24 468.81,291.69 455.75,291.37 C442.69,291.05 432.00,290.46 432.00,290.06 C432.00,288.05 438.06,287.00 449.56,287.00 C456.78,287.00 462.76,286.54 463.76,285.92 C465.30,284.96 465.48,283.13 465.30,269.96 L 465.09 255.09 L 478.50 254.50 L 479.13 244.85 C479.48,239.54 480.09,234.66 480.50,234.01 C480.90,233.35 481.31,228.02 481.40,222.16 C481.48,216.30 481.91,210.94 482.34,210.25 C482.82,209.48 485.39,209.00 489.06,209.00 C492.33,209.00 495.00,208.57 495.00,208.04 C495.00,207.52 498.49,206.95 502.75,206.79 L 510.50 206.50 L 510.80 200.29 C511.05,194.93 510.81,193.90 509.05,192.80 C506.47,191.19 506.46,189.91 509.00,187.73 C511.40,185.68 511.70,179.83 509.51,178.01 C508.62,177.27 508.08,175.28 508.17,173.05 C508.35,168.42 507.55,167.04 505.06,167.69 C503.93,167.99 501.76,167.19 499.81,165.75 C494.87,162.09 493.21,161.75 492.43,164.21 C491.78,166.25 491.73,166.26 490.77,164.41 C490.23,163.36 487.36,160.02 484.39,157.00 C483.91,156.51 483.37,155.94 482.79,155.30 C482.94,155.43 483.09,155.55 483.23,155.66 C486.14,158.74 488.49,160.85 488.86,160.48 C489.08,160.25 488.70,158.69 488.00,157.00 C486.09,152.40 487.58,152.18 491.93,156.43 C494.07,158.52 496.30,159.94 496.88,159.58 C497.14,159.41 497.51,159.45 497.89,159.65 C498.26,159.98 498.61,160.29 498.95,160.59 C499.04,160.70 499.13,160.83 499.21,160.96 C499.91,162.08 500.97,163.00 501.57,163.00 C502.16,163.00 503.71,164.12 505.00,165.50 C506.29,166.88 507.75,168.00 508.24,168.00 C508.74,168.00 511.10,169.35 513.50,171.00 C518.38,174.36 519.81,174.67 520.62,172.54 C521.06,171.41 519.07,168.19 515.90,164.51 C515.13,163.62 514.29,162.70 513.40,161.78 C512.63,160.89 511.75,159.99 510.79,159.12 C510.46,158.82 510.13,158.52 509.80,158.22 C507.89,156.35 505.72,154.29 503.27,152.03 C500.26,149.07 497.71,146.39 495.76,144.14 C495.28,143.36 495.03,142.71 495.02,142.20 C495.01,140.94 493.97,138.91 492.71,137.70 C490.21,135.29 488.19,130.89 487.10,125.65 C486.88,124.32 486.70,122.88 486.53,121.20 ZM 535.00 283.28 C535.83,283.59 540.61,283.88 545.63,283.92 C552.34,283.98 555.07,283.63 555.92,282.59 C556.89,281.43 555.20,280.22 546.30,275.73 C540.36,272.73 533.03,268.98 530.00,267.41 C526.53,265.59 520.70,260.71 514.18,254.14 C502.16,242.01 500.85,241.89 503.39,253.10 C506.05,264.90 516.40,276.43 528.25,280.79 C531.14,281.85 534.17,282.98 535.00,283.28 ZM 518.50 164.00 C519.66,165.88 521.95,165.00 523.44,162.12 C524.28,160.49 526.09,158.94 527.59,158.57 C533.76,157.02 533.71,154.50 527.44,150.22 C522.64,146.95 519.72,146.59 516.03,148.84 C511.52,151.58 507.43,150.20 506.67,145.69 C505.55,138.96 504.66,136.92 501.29,133.34 C498.91,130.83 496.74,129.53 494.49,129.30 L 491.19 128.96 L 491.71 133.23 C492.00,135.58 492.86,138.00 493.62,138.61 C494.38,139.22 495.00,140.40 495.00,141.24 C495.00,142.07 496.35,143.32 498.00,144.00 C499.65,144.68 501.00,145.64 501.00,146.12 C501.00,146.60 501.84,147.00 502.86,147.00 C504.60,147.00 509.38,153.28 512.94,160.25 C513.71,161.76 515.14,163.00 516.11,163.00 C517.08,163.00 518.16,163.45 518.50,164.00 ZM 386.17 359.08 C377.97,363.47 377.56,363.60 378.34,361.54 C379.25,359.18 377.02,347.67 375.27,345.75 C374.39,344.77 371.94,343.69 369.83,343.36 C367.72,343.02 366.00,342.42 366.00,342.03 C366.00,341.30 382.49,338.45 391.75,337.58 C397.54,337.04 398.85,338.46 394.08,340.12 C389.83,341.60 388.73,346.00 392.61,346.00 C394.77,346.00 401.98,350.30 401.99,351.59 C402.00,352.19 400.09,353.24 397.75,353.93 C395.41,354.61 390.20,356.93 386.17,359.08 ZM 437.43 199.48 C438.49,198.68 439.16,197.83 438.93,197.60 C438.82,197.49 438.40,197.49 437.79,197.57 C444.29,195.98 451.65,194.50 455.64,194.02 C469.17,192.41 470.00,192.15 469.97,189.67 C469.95,188.48 469.06,185.70 468.00,183.50 C466.94,181.30 466.05,179.14 466.03,178.70 C466.02,178.26 464.51,175.56 462.69,172.70 C457.86,165.10 457.81,165.00 458.69,165.00 C460.17,165.00 465.00,169.71 465.00,171.15 C465.00,172.47 467.12,175.37 472.75,181.74 C475.23,184.55 475.50,185.57 474.00,186.50 C473.45,186.84 473.00,188.16 473.00,189.44 C473.00,192.45 466.82,197.23 462.63,197.46 C460.91,197.55 457.14,197.71 454.25,197.81 C449.89,197.97 449.00,198.31 449.00,199.84 C449.00,201.78 452.76,204.00 456.05,204.00 C457.12,204.00 458.00,204.47 458.00,205.05 C458.00,205.69 456.11,205.99 453.25,205.80 C450.53,205.63 448.58,205.04 448.69,204.42 C448.80,203.82 448.35,203.27 447.69,203.20 C447.04,203.13 444.48,202.80 442.00,202.46 C439.19,202.07 435.27,202.43 431.56,203.42 C428.30,204.28 425.27,205.55 424.83,206.24 C424.30,207.07 424.03,207.11 424.02,206.37 C424.01,205.71 422.22,205.22 419.75,205.20 C412.11,205.14 412.00,205.10 411.97,202.75 C411.95,201.51 411.28,199.63 410.47,198.56 C408.65,196.15 408.56,193.00 410.31,193.00 C411.05,193.00 412.19,195.22 412.93,198.10 C413.44,200.08 413.66,201.41 414.44,202.11 C415.85,203.36 419.09,202.57 429.17,199.84 C428.78,200.01 428.51,200.16 428.38,200.28 C426.99,201.68 435.53,200.91 437.43,199.48 ZM 402.00 306.20 C404.07,305.80 404.98,305.57 404.21,305.39 C410.49,305.72 416.56,306.37 418.46,306.97 C421.70,307.98 422.21,308.25 421.12,309.15 C422.05,308.24 420.70,307.56 416.86,306.64 C414.78,306.15 414.12,306.43 413.71,308.01 C413.35,309.40 412.32,310.01 410.34,310.03 C408.78,310.05 405.70,310.94 403.50,312.00 C401.30,313.06 398.83,313.96 398.00,313.98 C397.17,314.01 394.52,315.38 392.10,317.02 C389.68,318.66 387.33,320.00 386.88,320.00 C386.82,320.00 386.73,320.02 386.60,320.07 C387.12,319.82 387.56,319.64 387.87,319.54 C389.05,319.17 390.66,317.62 391.45,316.10 C392.72,313.63 392.69,313.18 391.14,311.86 C390.19,311.04 388.64,310.08 387.70,309.71 C386.75,309.35 385.45,307.89 384.80,306.46 C383.84,304.34 383.91,303.38 385.22,301.22 C386.52,299.08 387.70,298.52 391.41,298.28 C393.94,298.11 396.00,298.32 396.00,298.74 C395.99,299.16 393.94,300.35 391.42,301.38 C388.91,302.41 387.23,303.61 387.68,304.04 C387.92,304.28 389.88,304.55 392.77,304.79 C389.19,304.71 386.57,304.76 386.39,304.94 C386.15,305.18 387.20,305.95 388.73,306.65 C391.50,307.92 393.55,307.85 402.00,306.20 ZM 297.90 381.95 C297.60,381.98 297.33,382.00 297.11,382.00 C295.25,382.00 294.98,381.62 295.55,379.75 C295.92,378.51 296.62,377.07 297.11,376.55 C298.77,374.78 298.01,374.00 294.61,374.00 C292.51,374.00 290.99,373.43 290.64,372.50 C290.32,371.67 290.55,371.00 291.15,371.00 C291.74,371.00 294.38,369.42 297.01,367.49 L 301.80 363.98 L 302.91 367.17 C304.58,371.98 306.88,374.00 310.65,374.00 C312.74,374.00 314.00,374.49 314.00,375.31 C314.00,376.16 312.34,377.27 309.01,378.64 C308.94,377.95 305.77,377.35 302.62,377.75 C298.45,378.28 296.00,379.52 296.00,381.12 C296.00,381.73 296.68,382.00 297.90,381.95 ZM 421.83 138.00 C421.76,134.15 421.40,131.00 421.04,131.00 C420.68,131.00 419.81,133.22 419.12,135.93 C418.85,136.96 418.66,137.85 418.53,138.62 C418.51,137.67 418.53,136.63 418.59,135.50 C418.78,132.20 418.94,128.95 418.96,128.27 C419.04,125.81 423.82,123.84 429.70,123.85 C438.68,123.86 439.62,123.96 438.36,124.77 C437.38,125.39 437.15,131.33 437.98,134.50 C438.12,135.05 438.18,136.31 438.12,137.31 C438.03,138.61 436.43,137.42 432.39,133.06 C427.05,127.29 423.91,125.71 422.45,128.07 C422.09,128.66 421.81,132.71 421.84,137.07 C421.85,137.59 421.84,138.10 421.84,138.59 C421.83,138.40 421.83,138.20 421.83,138.00 ZM 532.65 128.17 C531.74,127.17 531.00,125.58 531.00,124.65 C531.00,123.72 529.88,122.44 528.50,121.82 C527.26,121.25 526.62,120.76 526.30,119.62 L 526.16 117.33 C526.14,117.13 526.13,116.92 526.12,116.71 C526.12,113.35 526.35,110.59 526.69,109.81 C526.75,109.70 526.80,109.63 526.86,109.59 C526.89,109.57 526.92,109.56 526.95,109.54 C527.31,109.51 527.86,109.75 528.44,110.13 C529.19,110.79 530.08,111.96 531.05,113.57 C531.17,114.02 531.63,114.90 532.30,115.98 C532.72,116.71 533.22,117.51 533.75,118.32 C535.26,120.62 536.67,123.18 536.89,124.00 C538.28,129.42 538.22,130.00 536.27,130.00 C535.19,130.00 533.57,129.18 532.65,128.17 ZM 322.96 341.07 C324.47,338.25 324.23,336.81 322.32,337.18 C321.34,337.37 320.46,338.60 319.99,339.89 C320.03,338.19 317.79,339.07 313.28,342.51 C310.76,344.44 308.48,345.82 308.23,345.57 C307.99,345.32 308.77,343.73 309.97,342.04 C312.19,338.93 318.45,335.54 320.11,336.57 C320.60,336.87 321.00,336.42 321.00,335.56 C321.00,333.15 322.91,333.72 324.19,336.51 C324.97,338.24 325.05,340.50 324.42,343.76 C323.59,348.06 323.08,348.71 319.00,350.71 C316.52,351.92 314.20,352.94 313.82,352.96 C313.45,352.98 314.69,350.44 316.57,347.31 C318.13,344.72 319.16,342.75 319.65,341.38 C319.57,342.30 319.82,343.00 320.55,343.00 C321.31,343.00 322.40,342.13 322.96,341.07 ZM 359.61 374.90 C359.19,375.24 358.77,375.56 358.37,375.84 L 360.50 374.07 L 358.25 374.03 C357.01,374.01 355.98,373.44 355.96,372.75 C355.95,372.22 355.44,372.69 354.84,373.51 C355.34,372.59 355.91,371.56 356.51,370.50 C358.40,367.20 360.44,363.26 361.07,361.75 C361.69,360.24 362.57,359.00 363.03,359.00 C363.90,359.00 365.54,362.95 365.20,364.23 C365.10,364.64 366.25,365.24 367.76,365.57 C369.27,365.90 370.91,366.27 371.42,366.39 C371.92,366.51 370.35,367.78 367.92,369.21 C365.49,370.64 361.75,373.20 359.61,374.90 ZM 420.84 342.12 C421.25,341.86 421.43,341.64 421.36,341.46 C423.76,342.27 425.53,343.10 425.74,343.72 C425.95,344.35 425.20,345.36 424.08,345.96 C422.95,346.56 420.00,347.43 417.51,347.90 C413.50,348.65 413.00,348.54 413.00,346.91 C413.00,345.90 412.14,344.61 411.08,344.04 C408.66,342.75 406.00,340.12 406.00,339.02 C406.00,337.82 413.06,339.03 418.74,340.65 C416.92,340.47 416.45,341.12 417.67,342.33 C418.53,343.20 419.21,343.16 420.84,342.12 ZM 506.39 281.80 C505.90,284.24 506.10,285.00 507.23,285.00 C510.71,285.00 515.16,282.58 516.52,279.96 C517.91,277.28 517.84,277.02 515.32,275.04 C513.51,273.61 511.45,273.01 508.89,273.16 C505.60,273.36 505.26,273.61 506.10,275.19 C506.63,276.19 507.62,277.01 508.29,277.02 C509.22,277.03 509.22,277.21 508.27,277.82 C507.59,278.25 506.74,280.04 506.39,281.80 ZM 498.47 175.05 C497.60,176.46 496.31,176.14 489.26,172.72 C484.81,170.56 483.44,168.33 484.50,165.00 C485.30,162.49 487.00,162.38 487.00,164.85 C487.00,166.59 489.87,170.00 491.33,170.00 C491.70,170.00 492.00,169.29 492.00,168.41 C492.00,167.35 493.17,168.03 495.53,170.46 C497.47,172.46 498.79,174.52 498.47,175.05 ZM 429.78 103.56 C427.66,102.53 425.60,101.82 424.03,101.71 C422.37,101.60 421.00,101.16 421.00,100.75 C421.00,99.47 414.31,99.93 411.33,101.41 C409.77,102.18 407.36,103.33 405.96,103.96 C404.86,104.46 403.65,105.41 402.92,106.30 C402.97,106.15 403.00,106.03 403.00,105.96 C403.00,105.43 403.36,105.00 403.81,105.00 C404.25,105.00 406.04,102.97 407.79,100.50 C409.50,98.07 411.17,96.62 412.92,96.11 C413.61,96.17 414.27,96.62 414.94,97.43 C415.59,98.21 417.31,98.72 418.77,98.57 C420.42,98.39 423.37,99.54 426.66,101.64 C427.77,102.36 428.85,103.02 429.78,103.56 ZM 449.16 117.99 C449.25,118.07 449.35,118.15 449.44,118.24 L 447.04 119.48 C442.50,121.82 441.33,121.41 440.67,117.25 C440.34,115.19 439.93,112.76 439.75,111.86 C439.37,110.00 436.03,107.13 432.29,104.92 C432.42,104.97 432.51,105.00 432.56,105.00 L 432.56 105.00 C432.92,105.00 434.63,106.16 436.36,107.58 C438.09,109.00 440.76,111.14 442.29,112.33 C442.45,112.45 442.61,112.57 442.76,112.70 C444.08,113.75 446.53,115.78 449.16,117.99 ZM 343.58 237.14 C343.91,237.67 346.67,236.70 349.84,234.93 C352.46,233.46 354.44,232.26 355.84,231.26 C355.72,231.35 355.61,231.44 355.50,231.53 C352.66,233.86 352.62,233.99 354.75,234.00 C354.92,234.00 355.08,233.99 355.24,233.97 C355.75,233.92 356.19,233.81 356.50,233.65 C356.00,234.06 355.18,234.54 354.25,234.92 C352.74,235.53 349.95,237.16 348.06,238.54 C345.73,240.25 343.47,241.01 341.06,240.90 C339.25,240.82 334.87,241.53 330.97,242.52 C337.26,240.59 343.11,238.17 343.57,237.11 C343.57,237.12 343.58,237.13 343.58,237.14 ZM 375.00 212.33 C375.00,210.87 374.88,209.85 374.74,210.08 C374.60,210.31 373.63,211.51 372.58,212.75 L 372.50 212.86 C372.81,212.41 373.16,211.95 373.53,211.50 L 375.99 208.50 L 376.00 211.84 C376.00,214.10 375.11,216.14 373.25,218.16 C369.94,221.74 364.98,225.46 365.04,224.32 C365.06,223.87 366.41,221.94 368.04,220.04 C369.67,218.13 371.02,216.11 371.04,215.54 C371.04,215.38 371.13,215.14 371.28,214.83 C371.45,215.00 371.96,215.00 372.85,215.00 C374.51,215.00 375.00,214.40 375.00,212.33 ZM 415.92 168.03 C416.25,168.01 416.61,168.00 416.99,168.00 C420.13,168.00 421.26,167.45 422.94,165.09 C424.07,163.49 424.73,161.47 424.40,160.59 C424.06,159.72 424.24,159.00 424.80,159.00 C424.83,159.00 424.86,159.01 424.90,159.03 C424.08,159.56 424.96,166.89 426.17,169.25 C426.90,170.67 426.64,170.99 424.79,170.97 C423.53,170.95 421.63,170.28 420.56,169.47 C419.18,168.43 417.50,167.96 415.92,168.03 ZM 371.05 331.69 C369.10,333.11 367.29,334.53 366.05,335.64 C362.03,339.26 361.10,339.71 360.57,338.33 C360.22,337.41 360.33,336.40 360.83,336.08 C361.32,335.76 362.44,334.09 363.32,332.37 C364.90,329.29 370.84,326.00 374.82,326.00 C375.71,326.00 378.10,324.95 380.39,323.59 C378.11,324.96 375.96,326.00 375.35,326.00 C372.93,326.00 365.10,332.10 363.56,335.19 C361.34,339.63 361.48,339.62 366.60,335.12 C367.66,334.19 369.25,332.97 371.05,331.69 ZM 414.00 294.25 C401.96,298.13 398.17,298.00 406.07,293.96 C409.23,292.35 410.75,292.10 412.82,292.83 C414.68,293.48 415.04,293.92 414.00,294.25 ZM 386.80 139.64 C385.00,143.47 384.10,147.94 385.10,148.56 C386.64,149.51 386.10,151.96 383.50,155.79 C382.46,157.32 381.55,159.43 381.17,161.08 C381.25,160.08 381.32,158.95 381.41,157.66 C381.58,155.26 382.01,152.71 382.52,150.83 C382.84,150.12 383.20,149.36 383.55,148.67 C383.97,147.85 384.35,146.93 384.62,146.12 C384.86,145.49 385.00,144.92 385.00,144.53 C385.00,143.74 385.79,141.60 386.80,139.64 ZM 380.27 195.75 C379.42,201.34 378.00,199.30 378.00,192.50 C378.00,188.93 378.39,186.00 378.87,186.00 C380.05,186.00 380.87,191.76 380.27,195.75 ZM 424.94 292.34 C424.00,293.15 416.00,293.98 416.01,293.26 C416.01,292.84 417.43,291.69 419.17,290.70 C422.00,289.09 422.49,289.06 423.86,290.43 C424.69,291.27 425.18,292.13 424.94,292.34 ZM 524.59 258.15 C525.29,259.28 527.15,259.20 529.00,257.97 C530.30,257.10 530.23,256.76 528.51,255.45 C526.72,254.08 526.40,254.10 525.29,255.61 C524.62,256.54 524.30,257.68 524.59,258.15 ZM 526.00 170.50 C526.00,171.88 526.19,173.00 526.42,173.00 C529.65,173.00 531.17,169.66 528.42,168.61 C526.08,167.71 526.00,167.78 526.00,170.50 ZM 331.59 365.60 C332.71,362.13 336.13,360.05 340.75,360.02 C341.31,360.02 341.85,360.03 342.34,360.05 C340.92,360.28 339.32,360.82 338.64,361.50 C337.82,362.33 336.23,363.00 335.11,363.00 C333.91,363.00 332.40,364.23 331.59,365.60 ZM 400.38 110.76 C399.46,112.40 398.35,114.36 397.25,116.30 C394.91,120.39 393.00,125.05 393.00,126.65 C393.00,128.41 392.21,130.13 391.00,131.00 C390.30,131.51 389.67,132.24 389.32,132.91 C390.85,128.51 397.52,115.00 400.38,110.76 ZM 512.00 176.61 C512.00,177.37 512.60,178.00 513.33,178.00 C515.19,178.00 515.95,177.04 515.35,175.47 C514.71,173.79 512.00,174.72 512.00,176.61 ZM 513.77 148.19 C513.99,147.53 513.45,147.00 512.58,147.00 C511.71,147.00 511.00,147.71 511.00,148.58 C511.00,150.35 513.15,150.04 513.77,148.19 ZM 620.16 374.12 C605.99,379.13 593.93,381.91 576.92,384.58 C574.59,384.94 571.17,385.27 567.17,385.56 C581.62,384.18 594.94,381.72 608.35,377.87 C618.98,374.72 630.06,370.58 642.76,365.17 C634.22,368.82 626.95,371.73 620.16,374.12 ZM 495.00 246.06 C495.00,246.58 495.45,247.00 496.00,247.00 C496.55,247.00 497.00,246.30 497.00,245.44 C497.00,244.58 496.55,244.16 496.00,244.50 C495.45,244.84 495.00,245.54 495.00,246.06 ZM 524.58 176.13 C525.21,177.15 525.45,177.15 525.79,176.14 C526.27,174.69 525.29,173.37 524.40,174.27 C524.07,174.60 524.15,175.44 524.58,176.13 ZM 461.00 206.00 C461.00,206.55 460.55,207.00 460.00,207.00 C459.45,207.00 459.00,206.55 459.00,206.00 C459.00,205.45 459.45,205.00 460.00,205.00 C460.55,205.00 461.00,205.45 461.00,206.00 ZM 412.88 312.01 C408.39,313.01 403.02,314.84 397.26,317.29 C404.12,314.27 410.09,312.19 412.88,312.01 ZM 473.81 144.45 C473.57,144.13 473.33,143.81 473.10,143.50 C470.46,139.91 465.62,134.22 461.36,129.63 C462.59,130.91 463.78,132.19 464.95,133.48 L 464.95 133.48 C465.50,134.09 466.05,134.72 466.59,135.34 L 466.59 135.35 C469.10,138.28 471.50,141.31 473.81,144.45 ZM 646.11 342.06 C646.39,342.16 646.62,342.26 646.77,342.36 C647.95,343.09 649.54,345.78 650.81,348.78 C649.42,345.67 647.60,342.89 646.11,342.06 ZM 316.30 247.84 C316.64,247.83 316.96,247.80 317.27,247.75 C317.93,247.63 318.52,247.39 319.01,247.05 C319.00,247.10 319.00,247.16 319.00,247.22 C319.00,247.69 317.90,247.93 316.30,247.84 ZM 380.97 163.37 C380.91,165.44 380.63,166.64 379.51,167.27 C379.55,167.24 379.59,167.21 379.63,167.18 C380.40,166.52 380.74,165.35 380.97,163.37 ZM 508.26 298.33 C510.26,298.73 512.78,299.35 514.29,299.81 C513.85,299.70 513.42,299.60 513.00,299.50 C511.38,299.12 509.73,298.71 508.26,298.33 ZM 321.46 245.30 C322.24,244.91 323.09,244.58 323.82,244.42 C324.33,244.31 324.85,244.19 325.38,244.06 C323.67,244.56 322.40,244.96 321.46,245.30 ZM 303.02 251.28 C301.41,252.03 299.86,252.82 298.40,253.62 C299.11,253.22 299.85,252.81 300.60,252.41 C302.48,251.45 304.37,250.57 306.16,249.84 C305.22,250.25 304.18,250.73 303.02,251.28 ZM 420.66 309.51 C420.62,309.53 420.58,309.56 420.54,309.59 C419.77,310.15 418.23,310.79 416.69,311.22 C417.39,310.99 418.11,310.72 418.78,310.44 C419.60,310.10 420.22,309.79 420.66,309.51 ZM 419.43 143.73 C420.35,145.18 421.01,145.30 421.40,144.08 C421.28,144.67 421.14,145.00 420.98,145.00 C420.35,145.00 419.83,144.56 419.43,143.73 ZM 415.25 168.09 C413.75,168.31 412.39,169.03 411.56,170.22 C412.45,168.95 413.50,168.31 415.25,168.09 ZM 373.55 167.78 C372.61,167.73 371.55,167.65 370.36,167.55 C367.15,167.30 364.39,167.03 361.82,166.66 C364.47,167.04 367.31,167.30 370.64,167.55 C371.17,167.59 371.66,167.63 372.13,167.67 C372.64,167.71 373.11,167.75 373.55,167.78 ZM 343.86 234.32 C344.05,233.66 345.88,232.02 348.02,230.60 C345.98,231.96 344.59,233.21 343.86,234.32 ZM 353.06 377.50 C353.16,377.90 353.58,378.05 354.18,378.00 C353.54,378.10 353.13,377.95 353.06,377.50 ZM 388.31 136.46 C388.16,136.87 387.98,137.28 387.78,137.69 C387.98,137.27 388.16,136.85 388.31,136.46 ZM 287.04 262.56 C287.05,262.47 287.08,262.37 287.12,262.27 C287.06,262.44 287.02,262.59 287.02,262.74 ZM 356.73 230.58 L 356.75 230.57 Z" fill="rgb(225,43,94)"/>
<path d="M 238.42 343.49 C242.38,341.35 247.25,339.31 251.10,338.25 L 251.10 338.25 C251.40,338.17 251.70,338.09 252.00,338.02 C253.91,337.55 255.73,337.06 257.47,336.56 C261.59,335.37 265.25,334.06 268.53,332.56 C272.31,331.34 276.77,328.42 280.89,324.66 C284.19,321.81 286.97,318.55 289.32,314.83 C290.07,313.69 290.75,312.53 291.34,311.38 C291.84,310.53 292.34,309.66 292.83,308.77 C296.94,301.32 297.46,299.38 291.47,302.21 L 291.45 302.18 C291.31,302.00 289.36,303.01 287.11,304.43 C287.03,304.48 286.94,304.54 286.86,304.59 C285.83,305.14 284.72,305.76 283.50,306.44 C283.26,306.57 282.92,306.77 282.52,307.01 C282.09,307.13 279.89,308.49 277.46,310.13 C276.87,310.53 276.24,310.93 275.57,311.33 C273.02,312.81 269.25,314.71 266.19,316.04 C265.88,316.17 265.57,316.29 265.27,316.42 C262.97,317.35 260.81,318.09 259.06,318.53 C257.02,318.91 255.02,318.84 251.65,318.56 C247.72,318.24 242.15,317.79 239.28,317.58 C236.15,317.34 233.48,316.53 230.18,314.76 C226.28,312.32 222.34,309.42 219.46,306.76 C219.41,306.71 219.37,306.66 219.33,306.61 C218.61,305.73 218.12,304.97 217.85,304.35 C217.10,302.41 218.60,301.56 222.83,302.83 C223.68,303.09 224.99,303.32 226.52,303.51 C228.70,303.83 231.21,304.00 233.99,304.00 C234.03,304.00 234.07,304.00 234.11,304.00 L 234.11 304.00 C234.14,304.00 234.18,304.00 234.21,304.00 C239.47,304.00 244.18,303.26 249.05,301.43 C255.91,298.87 263.08,294.17 272.70,286.36 C274.44,284.95 276.08,283.70 277.69,282.58 C277.92,282.41 278.16,282.25 278.40,282.09 C279.96,281.03 281.50,280.08 283.11,279.20 C286.25,277.48 289.55,276.07 293.50,274.71 C302.73,271.54 311.12,270.00 319.25,270.00 C321.55,270.00 323.30,269.88 324.54,269.63 C325.63,269.45 326.37,269.21 326.53,268.96 L 326.53 268.96 C326.93,268.31 326.87,267.66 326.42,267.06 C326.32,266.90 326.20,266.74 326.05,266.56 C325.67,266.11 325.00,265.71 324.00,265.38 C323.27,265.08 322.41,264.84 321.47,264.69 C319.55,264.38 317.28,263.42 316.42,262.56 C314.26,260.40 300.79,260.36 298.64,262.50 C297.97,263.17 296.32,263.63 294.47,263.86 C289.02,263.77 287.03,263.43 287.02,262.75 L 287.02 262.74 C287.02,262.59 287.06,262.44 287.12,262.27 C287.86,260.39 292.47,256.98 298.40,253.62 C299.86,252.82 301.41,252.03 303.02,251.28 C304.18,250.73 305.22,250.25 306.16,249.84 C309.79,248.35 312.98,247.46 314.71,247.72 C315.28,247.81 315.81,247.85 316.30,247.84 C317.90,247.93 319.00,247.69 319.00,247.22 C319.00,247.16 319.00,247.10 319.01,247.05 C319.20,246.92 319.37,246.77 319.53,246.61 C319.98,246.17 320.68,245.70 321.46,245.30 C322.40,244.96 323.67,244.56 325.38,244.06 C327.19,243.63 329.10,243.10 330.97,242.52 C334.87,241.53 339.25,240.82 341.06,240.90 C343.47,241.01 345.73,240.25 348.06,238.54 C349.95,237.16 352.74,235.53 354.25,234.92 C355.18,234.54 356.00,234.06 356.50,233.65 C356.81,233.48 357.00,233.28 357.00,233.06 C357.00,232.72 357.63,231.73 358.58,230.53 C358.64,230.48 358.69,230.44 358.75,230.39 C359.51,229.82 359.88,229.32 359.73,229.14 C359.92,228.93 360.11,228.71 360.31,228.50 L 363.62 224.89 L 360.27 221.14 C359.60,220.39 358.72,219.33 357.66,218.03 C360.47,221.47 362.90,224.00 363.45,224.00 C364.21,224.00 365.13,223.45 366.22,222.33 C365.52,223.30 365.05,224.06 365.04,224.32 C364.98,225.46 369.94,221.74 373.25,218.16 C375.11,216.14 376.00,214.10 376.00,211.84 L 375.99 208.50 L 373.53 211.50 C373.43,211.63 373.33,211.75 373.23,211.88 C373.90,210.68 374.60,209.39 375.33,208.00 C377.03,204.81 377.61,202.50 378.08,195.05 C378.38,199.72 379.54,200.56 380.27,195.75 C380.87,191.76 380.05,186.00 378.87,186.00 C378.74,186.00 378.63,186.20 378.52,186.56 C378.87,179.88 379.33,173.62 379.62,171.89 L 380.22 168.27 L 374.40 167.84 C377.03,168.01 378.57,167.97 379.51,167.27 C380.63,166.64 380.91,165.44 380.97,163.37 C381.05,162.70 381.11,161.94 381.17,161.08 C381.55,159.43 382.46,157.32 383.50,155.79 C386.10,151.96 386.64,149.51 385.10,148.56 C384.10,147.94 385.00,143.47 386.80,139.64 C386.87,139.51 386.93,139.39 387.00,139.26 C387.28,138.74 387.54,138.21 387.78,137.69 C387.98,137.28 388.16,136.87 388.31,136.46 C388.73,135.43 389.00,134.56 389.00,134.15 C389.00,133.93 389.11,133.50 389.32,132.91 C389.67,132.24 390.30,131.51 391.00,131.00 C392.21,130.13 393.00,128.41 393.00,126.65 C393.00,125.05 394.91,120.39 397.25,116.30 C398.35,114.36 399.46,112.40 400.38,110.76 C400.39,110.74 400.40,110.73 400.42,110.71 C401.62,108.93 402.65,107.12 402.92,106.30 C403.65,105.41 404.86,104.46 405.96,103.96 C407.36,103.33 409.77,102.18 411.33,101.41 C414.31,99.93 421.00,99.47 421.00,100.75 C421.00,101.16 422.37,101.60 424.03,101.71 C425.60,101.82 427.66,102.53 429.78,103.56 C430.93,104.24 431.84,104.73 432.29,104.92 C436.03,107.13 439.37,110.00 439.75,111.86 C439.93,112.76 440.34,115.19 440.67,117.25 C441.33,121.41 442.50,121.82 447.04,119.48 L 449.44 118.24 C453.54,121.82 457.59,125.70 461.36,129.63 C465.62,134.22 470.46,139.91 473.10,143.50 C473.33,143.81 473.56,144.12 473.81,144.45 L 473.81 144.45 L 473.85 144.50 C474.46,145.34 475.13,146.21 475.84,147.10 C476.60,148.22 477.38,149.27 478.14,150.24 C478.23,150.37 478.32,150.50 478.41,150.63 C478.41,150.64 478.44,150.65 478.47,150.67 C480.07,152.67 481.58,154.29 482.79,155.30 C483.37,155.94 483.91,156.51 484.39,157.00 C484.94,157.56 485.48,158.13 486.01,158.69 C484.68,157.55 484.79,157.82 485.46,159.50 C485.83,160.43 486.30,162.02 486.61,163.32 C486.06,162.66 485.06,163.24 484.50,165.00 C483.44,168.33 484.81,170.56 489.26,172.72 C496.31,176.14 497.60,176.46 498.47,175.05 C498.79,174.52 497.47,172.46 495.53,170.46 C493.17,168.03 492.00,167.35 492.00,168.41 L 492.00 168.43 C491.99,167.18 491.25,165.30 490.16,163.49 C490.45,163.88 490.66,164.20 490.77,164.41 C491.73,166.26 491.78,166.25 492.43,164.21 C493.21,161.75 494.87,162.09 499.81,165.75 C501.76,167.19 503.93,167.99 505.06,167.69 C507.55,167.04 508.35,168.42 508.17,173.05 C508.08,175.28 508.62,177.27 509.51,178.01 C511.70,179.83 511.40,185.68 509.00,187.73 C506.46,189.91 506.47,191.19 509.05,192.80 C510.81,193.90 511.05,194.93 510.80,200.29 L 510.50 206.50 L 502.75 206.79 C498.49,206.95 495.00,207.52 495.00,208.04 C495.00,208.57 492.33,209.00 489.06,209.00 C485.39,209.00 482.82,209.48 482.34,210.25 C481.91,210.94 481.48,216.30 481.40,222.16 C481.31,228.02 480.90,233.35 480.50,234.01 C480.09,234.66 479.48,239.54 479.13,244.85 L 478.50 254.50 L 465.09 255.09 L 465.30 269.96 C465.48,283.13 465.30,284.96 463.76,285.92 C462.76,286.54 456.78,287.00 449.56,287.00 C438.06,287.00 432.00,288.05 432.00,290.06 C432.00,290.34 437.42,290.73 445.27,291.04 C437.51,291.23 430.21,291.76 424.19,292.67 C424.55,292.56 424.81,292.45 424.94,292.34 C425.18,292.13 424.69,291.27 423.86,290.43 C422.49,289.06 422.00,289.09 419.17,290.70 C417.43,291.69 416.01,292.84 416.01,293.26 C416.00,293.63 418.05,293.59 420.19,293.37 C410.93,295.16 399.21,298.37 392.73,300.81 C394.61,299.94 395.99,299.08 396.00,298.74 C396.00,298.32 393.94,298.11 391.41,298.28 C387.70,298.52 386.52,299.08 385.22,301.22 C383.91,303.38 383.84,304.34 384.80,306.46 C385.45,307.89 386.75,309.35 387.70,309.71 C388.64,310.08 390.19,311.04 391.14,311.86 C392.69,313.18 392.72,313.63 391.45,316.10 C390.66,317.62 389.05,319.17 387.87,319.54 C387.56,319.64 387.12,319.82 386.60,320.07 C385.76,320.37 383.59,321.57 381.34,323.00 C381.02,323.20 380.70,323.40 380.39,323.59 C378.10,324.95 375.71,326.00 374.82,326.00 C370.84,326.00 364.90,329.29 363.32,332.37 C362.44,334.09 361.32,335.76 360.83,336.08 C360.33,336.40 360.22,337.41 360.57,338.33 C361.02,339.49 361.74,339.36 364.32,337.17 C364.23,337.25 364.15,337.34 364.07,337.42 C362.18,339.37 360.92,341.26 361.27,341.61 C361.62,341.96 367.22,341.25 373.71,340.04 C376.44,339.53 379.28,339.11 382.15,338.78 C374.11,339.96 366.00,341.52 366.00,342.03 C366.00,342.42 367.72,343.02 369.83,343.36 C371.94,343.69 374.39,344.77 375.27,345.75 C377.02,347.67 379.25,359.18 378.34,361.54 C377.56,363.60 377.97,363.47 386.17,359.08 C390.20,356.93 395.41,354.61 397.75,353.93 C400.09,353.24 402.00,352.19 401.99,351.59 C401.98,350.30 394.77,346.00 392.61,346.00 C388.73,346.00 389.83,341.60 394.08,340.12 C396.68,339.21 397.48,338.38 396.71,337.90 C401.66,337.87 406.26,338.15 410.06,338.75 C407.68,338.42 406.00,338.44 406.00,339.02 C406.00,340.12 408.66,342.75 411.08,344.04 C412.14,344.61 413.00,345.90 413.00,346.91 C413.00,348.49 413.47,348.64 417.18,347.96 C415.60,348.43 413.73,348.97 411.50,349.61 C397.77,353.56 381.89,360.67 369.60,368.16 C371.02,367.21 371.79,366.48 371.42,366.39 C370.91,366.27 369.27,365.90 367.76,365.57 C366.25,365.24 365.10,364.64 365.20,364.23 C365.54,362.95 363.90,359.00 363.03,359.00 C362.84,359.00 362.58,359.21 362.30,359.56 L 363.09 357.70 L 355.80 358.26 C350.68,358.65 347.75,359.39 343.54,361.47 C344.45,360.94 345.00,360.56 345.00,360.46 C345.00,359.90 343.76,359.82 342.34,360.05 C341.85,360.03 341.31,360.02 340.75,360.02 C336.13,360.05 332.71,362.13 331.59,365.60 C331.22,366.20 331.00,366.84 331.00,367.41 C331.00,367.51 331.36,367.42 331.99,367.19 C332.68,367.04 333.97,366.44 336.24,365.31 C323.37,372.10 315.40,376.09 309.32,378.51 C312.44,377.20 314.00,376.13 314.00,375.31 C314.00,374.49 312.74,374.00 310.65,374.00 C306.88,374.00 304.58,371.98 302.91,367.17 L 301.80 363.98 L 297.01 367.49 C294.38,369.42 291.74,371.00 291.15,371.00 C290.55,371.00 290.32,371.67 290.64,372.50 C290.99,373.43 292.51,374.00 294.61,374.00 C298.01,374.00 298.77,374.78 297.11,376.55 C296.62,377.07 295.92,378.51 295.55,379.75 C295.05,381.39 295.19,381.88 296.50,381.98 C295.22,382.15 293.90,382.29 292.50,382.41 C284.88,383.05 274.14,381.57 272.16,379.59 C270.87,378.30 270.86,378.01 272.07,377.67 C287.43,373.34 292.89,370.80 301.16,364.13 C309.75,357.20 312.27,354.43 316.72,347.06 C318.24,344.54 319.22,342.59 319.66,341.24 C319.66,341.29 319.65,341.33 319.65,341.38 C319.16,342.75 318.13,344.72 316.57,347.31 C314.69,350.44 313.45,352.98 313.82,352.96 C314.20,352.94 316.52,351.92 319.00,350.71 C323.08,348.71 323.59,348.06 324.42,343.76 C325.05,340.50 324.97,338.24 324.19,336.51 C322.91,333.72 321.00,333.15 321.00,335.56 C321.00,336.42 320.60,336.87 320.11,336.57 C318.45,335.54 312.19,338.93 309.97,342.04 C308.77,343.73 307.99,345.32 308.23,345.57 C308.32,345.65 308.62,345.55 309.08,345.32 C307.74,346.13 306.38,346.90 305.23,347.48 C299.91,350.15 286.29,353.96 281.95,353.98 C280.55,353.99 278.53,354.66 277.45,355.47 C277.34,355.55 277.18,355.67 276.98,355.81 C276.99,355.71 277.00,355.61 277.00,355.50 C277.00,354.25 274.92,354.00 264.25,354.00 C263.94,354.00 263.64,354.00 263.34,354.00 L 263.34 354.00 C262.89,354.00 262.41,354.00 261.92,354.00 C256.58,354.00 251.82,354.31 248.08,354.86 C244.85,355.29 241.98,355.90 239.32,356.74 C236.69,357.47 234.24,358.36 231.92,359.42 C228.94,360.77 225.26,362.18 223.75,362.55 C219.76,363.52 220.14,360.77 224.47,357.32 C226.38,355.79 228.20,353.41 228.52,352.02 C228.83,350.64 230.43,348.89 232.79,347.09 C233.04,346.91 233.28,346.73 233.52,346.55 C233.55,346.53 233.58,346.51 233.60,346.49 C234.13,346.11 234.69,345.73 235.27,345.36 C236.19,344.77 237.28,344.13 238.42,343.49 ZM 415.92 168.03 C415.69,168.04 415.47,168.06 415.25,168.09 C413.50,168.31 412.45,168.95 411.56,170.22 C409.84,172.68 409.42,180.00 411.00,180.00 C411.32,180.00 411.60,179.54 411.78,178.83 C411.44,184.52 411.68,192.26 412.53,196.71 C411.82,194.54 410.93,193.00 410.31,193.00 C408.56,193.00 408.65,196.15 410.47,198.56 C411.28,199.63 411.95,201.51 411.97,202.75 C412.00,205.10 412.11,205.14 419.75,205.20 C422.22,205.22 424.01,205.71 424.02,206.37 C424.03,207.11 424.30,207.07 424.83,206.24 C425.27,205.55 428.30,204.28 431.56,203.42 C435.27,202.43 439.19,202.07 442.00,202.46 C444.48,202.80 447.04,203.13 447.69,203.20 C448.35,203.27 448.80,203.82 448.69,204.42 C448.58,205.04 450.53,205.63 453.25,205.80 C456.11,205.99 458.00,205.69 458.00,205.05 C458.00,204.47 457.12,204.00 456.05,204.00 C452.76,204.00 449.00,201.78 449.00,199.84 C449.00,198.31 449.89,197.97 454.25,197.81 C457.14,197.71 460.91,197.55 462.63,197.46 C466.82,197.23 473.00,192.45 473.00,189.44 C473.00,188.16 473.45,186.84 474.00,186.50 C475.50,185.57 475.23,184.55 472.75,181.74 C467.12,175.37 465.00,172.47 465.00,171.15 C465.00,169.71 460.17,165.00 458.69,165.00 C458.44,165.00 458.26,165.01 458.25,165.20 C456.28,162.00 454.21,158.72 452.40,155.98 C447.52,148.58 431.20,131.13 426.17,127.62 C427.77,128.49 429.83,130.29 432.39,133.06 C436.43,137.42 438.03,138.61 438.12,137.31 C438.18,136.31 438.12,135.05 437.98,134.50 C437.15,131.33 437.38,125.39 438.36,124.77 C439.62,123.96 438.68,123.86 429.70,123.85 C423.82,123.84 419.04,125.81 418.96,128.27 C418.94,128.95 418.78,132.20 418.59,135.50 C418.53,136.63 418.51,137.67 418.53,138.62 C418.22,140.58 418.37,141.82 418.96,142.93 C419.12,143.23 419.28,143.50 419.43,143.73 C419.83,144.56 420.35,145.00 420.98,145.00 C421.14,145.00 421.28,144.67 421.40,144.08 C421.72,143.11 421.86,141.27 421.84,138.59 C421.84,138.10 421.85,137.59 421.84,137.07 C421.81,132.71 422.09,128.66 422.45,128.07 C422.92,127.32 423.55,126.97 424.37,127.02 C422.06,127.25 421.77,129.23 421.88,139.66 C421.97,148.17 422.44,151.30 424.40,156.32 C424.88,157.57 425.44,159.07 426.00,160.61 C425.56,159.61 425.19,159.00 425.00,159.00 C424.96,159.00 424.93,159.01 424.90,159.03 C424.86,159.01 424.83,159.00 424.80,159.00 C424.24,159.00 424.06,159.72 424.40,160.59 C424.73,161.47 424.07,163.49 422.94,165.09 C421.26,167.45 420.13,168.00 416.99,168.00 C416.61,168.00 416.25,168.01 415.92,168.03 ZM 518.50 164.00 C518.16,163.45 517.08,163.00 516.11,163.00 C515.14,163.00 513.71,161.76 512.94,160.25 C509.38,153.28 504.60,147.00 502.86,147.00 C501.84,147.00 501.00,146.60 501.00,146.12 C501.00,145.64 499.65,144.68 498.00,144.00 C496.35,143.32 495.00,142.07 495.00,141.24 C495.00,140.40 494.38,139.22 493.62,138.61 C492.86,138.00 492.00,135.58 491.71,133.23 L 491.19 128.96 L 494.49 129.30 C496.74,129.53 498.91,130.83 501.29,133.34 C504.66,136.92 505.55,138.96 506.67,145.69 C507.43,150.20 511.52,151.58 516.03,148.84 C519.72,146.59 522.64,146.95 527.44,150.22 C533.71,154.50 533.76,157.02 527.59,158.57 C526.09,158.94 524.28,160.49 523.44,162.12 C521.95,165.00 519.66,165.88 518.50,164.00 ZM 477.53 292.13 C480.86,292.29 483.27,292.45 484.25,292.58 C488.10,293.08 489.00,292.91 489.00,291.68 C489.00,290.85 488.47,289.99 487.82,289.77 C487.18,289.56 486.98,288.85 487.38,288.19 C488.26,286.77 494.63,286.59 495.48,287.96 C496.45,289.53 501.00,286.90 501.00,284.77 C501.00,282.29 502.88,278.81 503.88,279.43 C504.91,280.06 504.03,286.00 502.92,286.00 C502.45,286.00 502.32,286.67 502.64,287.49 C502.95,288.32 503.56,288.77 503.99,288.51 C504.42,288.24 505.30,288.65 505.94,289.42 C506.82,290.49 506.81,291.00 505.89,291.57 C505.08,292.07 504.93,291.85 505.42,290.90 C505.82,290.13 505.50,290.29 504.71,291.25 C503.14,293.17 498.99,293.59 497.39,291.99 C496.31,290.91 490.00,291.75 490.00,292.97 C490.00,293.22 491.06,293.67 492.66,294.13 C488.20,293.31 483.05,292.64 477.53,292.13 ZM 506.39 281.80 C506.74,280.04 507.59,278.25 508.27,277.82 C509.22,277.21 509.22,277.03 508.29,277.02 C507.62,277.01 506.63,276.19 506.10,275.19 C505.26,273.61 505.60,273.36 508.89,273.16 C511.45,273.01 513.51,273.61 515.32,275.04 C517.84,277.02 517.91,277.28 516.52,279.96 C515.16,282.58 510.71,285.00 507.23,285.00 C506.10,285.00 505.90,284.24 506.39,281.80 ZM 414.00 294.25 C415.04,293.92 414.68,293.48 412.82,292.83 C410.75,292.10 409.23,292.35 406.07,293.96 C398.17,298.00 401.96,298.13 414.00,294.25 ZM 524.59 258.15 C524.30,257.68 524.62,256.54 525.29,255.61 C526.40,254.10 526.72,254.08 528.51,255.45 C530.23,256.76 530.30,257.10 529.00,257.97 C527.15,259.20 525.29,259.28 524.59,258.15 ZM 526.00 170.50 C526.00,167.78 526.08,167.71 528.42,168.61 C531.17,169.66 529.65,173.00 526.42,173.00 C526.19,173.00 526.00,171.88 526.00,170.50 ZM 546.98 158.16 C547.12,158.14 547.26,158.12 547.38,158.11 C547.87,158.26 548.37,158.44 548.85,158.64 C548.85,158.86 548.78,159.14 548.64,159.49 C548.29,160.41 548.00,161.35 548.00,161.58 C548.00,161.81 547.14,162.00 546.09,162.00 C544.84,162.00 544.26,161.39 544.43,160.25 C544.57,159.29 545.72,158.35 546.98,158.16 ZM 512.00 176.61 C512.00,174.72 514.71,173.79 515.35,175.47 C515.95,177.04 515.19,178.00 513.33,178.00 C512.60,178.00 512.00,177.37 512.00,176.61 ZM 495.00 246.06 C495.00,245.54 495.45,244.84 496.00,244.50 C496.55,244.16 497.00,244.58 497.00,245.44 C497.00,246.30 496.55,247.00 496.00,247.00 C495.45,247.00 495.00,246.58 495.00,246.06 ZM 524.58 176.13 C524.15,175.44 524.07,174.60 524.40,174.27 C525.29,173.37 526.27,174.69 525.79,176.14 C525.45,177.15 525.21,177.15 524.58,176.13 ZM 461.00 206.00 C461.00,205.45 460.55,205.00 460.00,205.00 C459.45,205.00 459.00,205.45 459.00,206.00 C459.00,206.55 459.45,207.00 460.00,207.00 C460.55,207.00 461.00,206.55 461.00,206.00 ZM 359.55 364.89 C358.68,366.60 357.57,368.65 356.51,370.50 C355.91,371.56 355.34,372.59 354.84,373.51 C354.75,373.64 354.66,373.78 354.57,373.92 C356.20,370.62 358.64,366.10 359.47,365.00 C359.50,364.97 359.53,364.93 359.55,364.89 ZM 252.47 373.36 C256.88,369.63 260.99,366.43 264.30,364.22 C266.74,362.59 269.07,361.08 271.01,359.87 C269.03,361.19 266.78,362.68 264.50,364.19 C260.46,366.85 255.33,370.89 249.92,375.57 C250.78,374.81 251.63,374.08 252.47,373.36 ZM 412.88 312.01 L 412.91 312.01 C406.46,313.46 398.05,316.74 389.88,320.72 C392.38,319.49 394.87,318.33 397.26,317.29 C403.02,314.84 408.39,313.01 412.88,312.01 ZM 359.61 374.90 C361.68,373.26 365.24,370.81 367.67,369.36 C365.13,370.96 362.78,372.57 360.65,374.17 C360.15,374.55 359.67,374.90 359.20,375.22 C359.34,375.12 359.47,375.01 359.61,374.90 ZM 488.79 168.25 C489.06,168.57 489.32,168.84 489.57,169.06 C488.30,167.94 487.04,166.06 487.00,164.89 C487.40,166.11 488.12,167.48 488.79,168.25 ZM 371.01 215.69 C370.84,216.30 369.92,217.71 368.74,219.20 C369.44,218.19 370.20,217.02 371.01,215.69 ZM 355.87 215.79 C355.98,215.92 356.09,216.06 356.19,216.19 C353.38,212.65 349.74,207.88 345.82,202.67 C349.08,206.98 352.47,211.40 355.87,215.79 ZM 414.14 170.64 C414.63,170.23 415.19,170.01 415.79,170.02 C416.12,170.02 416.76,170.20 417.56,170.50 C416.00,170.00 414.95,170.06 414.14,170.64 ZM 429.82 175.93 C430.75,175.98 431.02,175.50 430.63,174.47 C430.35,173.75 429.44,170.91 428.46,167.73 C428.49,167.82 428.52,167.91 428.55,168.00 C429.51,171.02 430.50,174.06 430.75,174.75 C431.08,175.62 430.74,176.01 429.82,175.93 ZM 463.92 174.68 C465.14,176.72 466.02,178.37 466.03,178.70 C466.05,179.14 466.94,181.30 468.00,183.50 C466.94,181.30 466.05,179.17 466.03,178.78 C466.02,178.48 465.20,176.93 463.92,174.68 ZM 378.85 326.61 C380.27,325.78 381.75,324.95 383.25,324.14 C380.42,325.68 377.69,327.28 375.18,328.88 C376.44,328.06 377.69,327.29 378.85,326.61 ZM 353.06 377.50 C353.13,377.92 353.49,378.08 354.07,378.01 C353.38,378.16 353.00,377.99 353.00,377.48 C353.00,377.44 353.01,377.39 353.03,377.31 C353.03,377.38 353.04,377.44 353.06,377.50 ZM 423.60 342.30 C422.96,342.02 422.20,341.74 421.36,341.46 C421.35,341.43 421.34,341.41 421.32,341.38 C422.22,341.69 422.99,342.00 423.60,342.30 ZM 419.02 340.68 C418.93,340.67 418.83,340.66 418.74,340.65 C417.77,340.37 416.75,340.10 415.74,339.86 C416.93,340.13 418.03,340.40 419.02,340.68 ZM 413.77 201.10 C413.95,201.51 414.17,201.85 414.46,202.10 C415.88,203.35 419.07,202.57 429.17,199.84 C419.09,202.57 415.85,203.36 414.44,202.11 C414.15,201.85 413.94,201.52 413.77,201.10 ZM 491.84 169.44 C491.72,169.78 491.53,170.00 491.33,170.00 C491.11,170.00 490.85,169.92 490.58,169.78 C491.18,170.06 491.62,169.95 491.84,169.44 ZM 502.52 296.59 C502.93,296.72 503.27,296.84 503.50,296.93 C503.83,297.06 504.43,297.26 505.23,297.49 C505.27,297.51 505.31,297.53 505.35,297.54 C504.49,297.30 503.84,297.09 503.50,296.96 C503.19,296.83 502.86,296.71 502.52,296.59 ZM 318.87 165.05 C318.69,164.73 318.55,164.48 318.46,164.28 C317.09,161.41 315.69,157.03 315.35,154.53 C315.69,157.03 317.10,161.41 318.47,164.28 C318.57,164.49 318.71,164.75 318.87,165.05 ZM 312.31 343.24 C312.62,343.01 312.95,342.76 313.28,342.51 C313.75,342.15 314.20,341.82 314.62,341.52 C314.43,341.66 314.24,341.81 314.04,341.97 C313.56,342.35 312.96,342.78 312.31,343.24 ZM 412.03 175.98 C412.09,175.19 412.20,174.46 412.38,173.80 C412.24,174.42 412.13,175.15 412.03,175.98 ZM 319.72 339.17 C319.91,339.30 320.00,339.54 319.99,339.89 C319.97,339.95 319.95,340.00 319.94,340.06 C319.97,339.64 319.90,339.34 319.72,339.17 ZM 508.26 298.33 C509.73,298.71 511.38,299.12 513.00,299.50 C511.34,299.11 509.66,298.70 508.17,298.31 Z" fill="rgb(228,43,84)"/>
<path d="M 200.29 644.39 C197.56,639.12 195.14,634.26 194.25,632.16 C194.16,631.93 194.12,631.78 194.13,631.73 C194.18,631.51 193.40,629.53 190.47,622.50 C189.78,620.85 188.92,618.38 188.55,617.00 C188.18,615.62 187.49,613.60 187.01,612.50 C186.54,611.40 184.59,605.55 182.67,599.50 C182.28,598.24 181.89,596.98 181.52,595.74 C179.28,587.47 177.18,578.02 175.80,569.66 C174.30,558.80 173.87,547.70 174.38,535.19 C174.75,526.22 175.50,516.54 176.05,513.69 C176.60,510.83 177.73,504.90 178.56,500.50 C180.48,490.30 181.21,487.70 187.24,469.50 C196.35,441.96 206.48,422.51 221.08,404.50 C227.61,396.45 239.44,384.73 249.92,375.57 L 249.92 375.56 C255.33,370.89 260.46,366.85 264.50,364.19 C266.78,362.68 269.03,361.19 271.01,359.87 C273.78,358.13 275.75,357.00 276.05,357.00 C276.51,357.00 276.89,356.49 276.98,355.81 C277.18,355.67 277.34,355.55 277.45,355.47 C278.53,354.66 280.55,353.99 281.95,353.98 C286.29,353.96 299.91,350.15 305.23,347.48 C306.38,346.90 307.74,346.13 309.08,345.32 C309.83,344.94 311.00,344.19 312.31,343.24 C312.96,342.78 313.56,342.35 314.04,341.97 C314.24,341.81 314.43,341.66 314.62,341.52 C317.40,339.51 319.10,338.73 319.72,339.17 C319.90,339.34 319.97,339.64 319.94,340.06 C319.80,340.46 319.71,340.87 319.66,341.24 C319.22,342.59 318.24,344.54 316.72,347.06 C312.27,354.43 309.75,357.20 301.16,364.13 C292.89,370.80 287.43,373.34 272.07,377.67 C270.86,378.01 270.87,378.30 272.16,379.59 C274.14,381.57 284.88,383.05 292.50,382.41 C293.90,382.29 295.22,382.15 296.50,381.98 C296.68,381.99 296.88,382.00 297.11,382.00 C297.33,382.00 297.60,381.98 297.90,381.95 C299.10,381.90 300.82,381.53 302.93,380.86 C304.89,380.23 307.16,379.53 307.97,379.30 C308.72,379.09 309.04,378.86 309.01,378.64 C309.12,378.59 309.22,378.55 309.32,378.51 C315.40,376.09 323.37,372.10 336.24,365.31 C336.75,365.06 337.31,364.78 337.93,364.47 L 337.98 364.44 L 338.00 364.43 C340.25,363.30 342.26,362.22 343.54,361.47 C347.75,359.39 350.68,358.65 355.80,358.26 L 363.09 357.70 L 362.30 359.56 C361.89,360.06 361.43,360.86 361.07,361.75 C360.79,362.42 360.24,363.55 359.55,364.89 C359.53,364.93 359.50,364.97 359.47,365.00 C358.64,366.10 356.20,370.62 354.57,373.92 C353.83,375.03 353.07,376.53 353.04,377.25 C353.03,377.27 353.03,377.29 353.03,377.31 C353.01,377.39 353.00,377.44 353.00,377.48 C353.00,377.99 353.38,378.16 354.07,378.01 C354.11,378.01 354.14,378.00 354.18,378.00 C355.20,377.90 356.75,377.19 358.14,376.03 L 358.37 375.84 C358.64,375.65 358.92,375.44 359.20,375.22 C359.67,374.90 360.15,374.55 360.65,374.17 C362.78,372.57 365.13,370.96 367.67,369.36 C367.75,369.31 367.84,369.26 367.92,369.21 C368.54,368.84 369.11,368.49 369.60,368.16 C381.89,360.67 397.77,353.56 411.50,349.61 C413.73,348.97 415.60,348.43 417.18,347.96 C417.29,347.94 417.40,347.92 417.51,347.90 C420.00,347.43 422.95,346.56 424.08,345.96 C425.20,345.36 425.95,344.35 425.74,343.72 C425.60,343.31 424.81,342.82 423.60,342.30 C422.99,342.00 422.22,341.69 421.32,341.38 C421.16,341.16 420.59,340.96 419.59,340.77 C419.39,340.73 419.20,340.70 419.02,340.68 C418.03,340.40 416.93,340.13 415.74,339.86 C413.73,339.38 411.72,338.98 410.06,338.75 L 410.06 338.75 C406.26,338.15 401.66,337.87 396.71,337.90 C396.08,337.50 394.38,337.34 391.75,337.58 C388.99,337.84 385.58,338.28 382.15,338.78 C379.28,339.11 376.44,339.53 373.71,340.04 C367.22,341.25 361.62,341.96 361.27,341.61 C360.92,341.26 362.18,339.37 364.07,337.42 C364.15,337.34 364.23,337.25 364.32,337.17 C364.82,336.74 365.39,336.23 366.05,335.64 C367.29,334.53 369.10,333.11 371.05,331.69 C372.36,330.76 373.78,329.79 375.18,328.88 C377.69,327.28 380.42,325.69 383.25,324.14 L 383.25 324.14 C385.43,322.96 387.66,321.81 389.88,320.72 C398.05,316.74 406.46,313.46 412.91,312.01 C413.03,312.00 413.14,312.00 413.25,312.00 C413.92,312.00 415.26,311.68 416.69,311.22 C418.23,310.79 419.77,310.15 420.54,309.59 C420.58,309.56 420.62,309.53 420.66,309.51 C420.85,309.38 421.00,309.27 421.12,309.15 C422.21,308.25 421.70,307.98 418.46,306.97 C416.56,306.37 410.49,305.72 404.21,305.39 C403.46,305.22 401.11,305.10 396.66,304.91 C395.29,304.86 393.98,304.81 392.77,304.79 C392.10,304.73 391.49,304.67 390.93,304.62 C391.58,304.27 392.10,303.71 392.29,303.00 C392.69,301.46 392.81,300.93 391.92,301.17 C392.20,301.05 392.47,300.93 392.73,300.81 C399.21,298.37 410.93,295.16 420.19,293.37 C421.70,293.21 423.26,292.95 424.19,292.67 C430.21,291.76 437.51,291.23 445.27,291.04 C448.43,291.17 451.99,291.28 455.75,291.37 C463.92,291.57 471.99,291.86 477.53,292.13 C483.05,292.64 488.20,293.31 492.66,294.13 C493.55,294.39 494.61,294.66 495.75,294.90 C498.25,295.42 500.95,296.11 502.52,296.59 C502.86,296.71 503.19,296.83 503.50,296.96 C503.84,297.09 504.49,297.30 505.35,297.54 C506.00,297.81 506.75,298.04 507.58,298.20 C507.77,298.23 507.97,298.27 508.17,298.31 C509.66,298.70 511.34,299.11 513.00,299.50 C513.42,299.60 513.85,299.70 514.29,299.81 C514.37,299.83 514.43,299.85 514.50,299.88 C516.14,300.40 517.37,300.71 518.24,300.83 C529.51,303.84 545.74,309.04 551.65,311.62 C553.38,312.38 555.10,313.00 555.46,313.00 C555.83,313.00 558.46,314.09 561.31,315.43 C566.67,317.94 591.54,327.27 603.73,331.45 C604.51,331.97 606.03,332.59 608.25,333.24 C613.04,334.63 614.43,335.03 614.84,334.71 C617.45,335.36 620.23,336.00 622.50,336.47 C626.90,337.37 632.59,338.76 635.13,339.55 C636.93,340.11 638.98,340.60 640.46,340.84 C640.82,340.92 641.20,340.98 641.58,341.04 C643.27,341.27 645.07,341.68 646.11,342.06 C647.60,342.89 649.42,345.67 650.81,348.78 C652.05,351.69 653.00,354.89 653.00,356.85 L 653.00 360.36 C651.94,360.92 650.88,361.46 649.81,361.95 C647.44,363.06 645.11,364.13 642.80,365.15 L 642.76 365.17 C630.06,370.58 618.98,374.72 608.35,377.87 C607.83,378.02 607.31,378.16 606.78,378.31 C593.89,381.91 581.05,384.24 567.17,385.56 C551.99,386.63 528.47,387.02 525.01,385.97 C523.63,385.55 518.90,384.44 514.50,383.50 C510.10,382.56 501.10,380.50 494.50,378.93 C472.31,373.63 464.53,372.73 445.18,373.26 C429.72,373.67 425.36,374.19 410.50,377.38 C390.12,381.75 386.33,382.80 369.50,388.72 C316.09,407.54 269.65,447.34 242.03,498.00 C227.57,524.51 217.98,553.63 214.95,580.18 C213.42,593.53 214.25,627.96 216.40,640.32 C220.09,661.63 227.59,683.52 234.47,693.10 C237.51,697.32 237.93,698.90 236.02,699.00 C235.60,698.47 235.15,697.95 234.74,697.51 C234.63,697.40 234.52,697.27 234.39,697.13 C233.88,696.40 233.11,695.45 232.24,694.50 C232.08,694.33 231.93,694.17 231.79,694.01 C230.48,692.37 228.88,690.30 226.61,687.33 C225.51,685.76 224.14,683.73 222.28,681.00 C220.23,677.97 217.93,674.87 217.19,674.09 C216.46,673.34 215.46,671.80 214.95,670.66 C214.94,670.64 214.93,670.62 214.92,670.60 L 214.92 670.59 C214.42,669.44 212.16,665.58 209.91,662.00 C208.15,659.21 203.93,651.38 200.29,644.39 ZM 412.00 176.93 C412.00,176.61 412.01,176.29 412.03,175.98 C412.13,175.15 412.24,174.42 412.38,173.80 C412.75,172.39 413.36,171.29 414.14,170.64 C414.95,170.06 416.00,170.00 417.56,170.50 C419.00,171.04 421.00,171.97 422.91,173.02 C426.31,174.89 428.61,175.86 429.82,175.93 C430.74,176.01 431.08,175.62 430.75,174.75 C430.50,174.06 429.51,171.02 428.55,168.00 C428.52,167.91 428.49,167.82 428.46,167.73 L 428.46 167.73 C428.28,167.15 428.10,166.56 427.92,165.97 C427.27,163.82 426.57,161.89 426.00,160.61 C425.44,159.07 424.88,157.57 424.40,156.32 C422.44,151.30 421.97,148.17 421.88,139.66 C421.77,129.23 422.06,127.25 424.37,127.02 C424.89,127.06 425.49,127.26 426.17,127.62 C431.20,131.13 447.52,148.58 452.40,155.98 C454.21,158.72 456.28,162.00 458.25,165.20 C458.23,165.68 459.25,167.29 462.69,172.70 C463.12,173.38 463.54,174.05 463.92,174.68 C465.20,176.93 466.02,178.48 466.03,178.78 C466.05,179.17 466.94,181.30 468.00,183.50 C469.06,185.70 469.95,188.48 469.97,189.67 C470.00,192.15 469.17,192.41 455.64,194.02 C451.65,194.50 444.29,195.98 437.79,197.57 C435.64,197.83 431.08,199.01 429.17,199.84 L 429.17 199.84 C419.07,202.57 415.88,203.35 414.46,202.10 C414.17,201.85 413.95,201.51 413.77,201.10 C413.46,200.36 413.25,199.36 412.93,198.10 C412.80,197.61 412.67,197.15 412.53,196.71 C411.68,192.26 411.44,184.52 411.78,178.83 C411.92,178.31 412.00,177.65 412.00,176.93 ZM 373.55 167.78 C373.85,167.80 374.13,167.82 374.40,167.84 L 380.22 168.27 L 379.62 171.89 C379.33,173.62 378.87,179.88 378.52,186.56 C378.21,187.57 378.00,189.86 378.00,192.50 C378.00,193.45 378.03,194.30 378.08,195.05 C377.61,202.50 377.03,204.81 375.33,208.00 C374.60,209.39 373.90,210.68 373.23,211.88 C372.97,212.20 372.72,212.53 372.50,212.86 C371.46,214.08 371.04,214.61 371.28,214.83 C371.13,215.14 371.04,215.38 371.04,215.54 C371.03,215.58 371.03,215.63 371.01,215.69 C370.20,217.02 369.44,218.19 368.74,219.20 C368.51,219.48 368.28,219.76 368.04,220.04 C367.36,220.83 366.73,221.64 366.22,222.33 C365.13,223.45 364.21,224.00 363.45,224.00 C362.90,224.00 360.47,221.47 357.66,218.03 C357.20,217.46 356.71,216.85 356.19,216.19 L 356.19 216.19 C356.09,216.06 355.98,215.92 355.87,215.79 C352.47,211.40 349.08,206.98 345.82,202.67 L 345.82 202.67 C334.83,188.04 321.70,169.86 318.87,165.05 C318.71,164.75 318.57,164.49 318.47,164.28 C317.10,161.41 315.69,157.03 315.35,154.53 L 315.35 154.53 C314.58,148.91 315.34,148.80 324.72,153.12 C344.85,162.37 352.08,165.28 361.82,166.66 C364.39,167.03 367.15,167.30 370.36,167.55 C371.55,167.65 372.61,167.73 373.55,167.78 ZM 535.00 283.28 C534.17,282.98 531.14,281.85 528.25,280.79 C516.40,276.43 506.05,264.90 503.39,253.10 C500.85,241.89 502.16,242.01 514.18,254.14 C520.70,260.71 526.53,265.59 530.00,267.41 C533.03,268.98 540.36,272.73 546.30,275.73 C549.10,277.14 551.19,278.23 552.70,279.10 C551.61,278.89 551.20,279.37 551.64,280.50 C552.12,281.76 550.90,282.00 544.11,282.00 C539.37,282.00 536.00,282.42 536.00,283.00 C536.00,283.23 536.34,283.42 536.94,283.57 C535.96,283.48 535.27,283.38 535.00,283.28 ZM 548.76 283.91 C552.29,283.69 555.33,283.23 555.92,282.59 C555.21,283.45 553.22,283.84 548.76,283.91 Z" fill="rgb(254,253,253)"/>
<path d="M 485.46 159.50 C484.79,157.82 484.68,157.55 486.01,158.69 C487.16,159.92 488.23,161.12 489.07,162.13 C488.52,162.00 488.05,162.69 487.65,164.21 C487.43,165.06 487.52,166.00 487.85,166.85 C487.52,166.23 487.21,165.54 487.00,164.89 C487.00,164.88 487.00,164.86 487.00,164.85 C487.00,164.10 486.85,163.60 486.61,163.32 C486.30,162.02 485.83,160.43 485.46,159.50 ZM 491.99 168.69 C492.00,168.09 491.86,167.29 491.54,166.31 C491.83,167.10 491.99,167.82 492.00,168.41 L 492.00 168.43 C492.00,168.52 492.00,168.61 491.99,168.69 ZM 490.28 169.61 C490.90,169.98 491.37,170.00 491.66,169.72 C491.41,169.98 491.04,170.00 490.58,169.78 C490.48,169.73 490.38,169.67 490.28,169.61 Z" fill="rgb(239,141,162)"/>
<path d="M 254.27 721.75 C253.73,721.06 253.05,719.51 252.75,718.31 C252.28,716.37 252.44,716.26 254.11,717.30 C255.15,717.95 256.00,718.79 256.00,719.16 C256.00,719.53 256.27,720.55 256.61,721.42 C257.33,723.30 255.66,723.53 254.27,721.75 ZM 387.59 304.15 C387.30,303.68 388.19,302.78 389.58,302.15 C392.86,300.65 392.90,300.66 392.29,303.00 C391.77,304.99 388.59,305.77 387.59,304.15 ZM 536.00 283.00 C536.00,282.42 539.37,282.00 544.11,282.00 C550.90,282.00 552.12,281.76 551.64,280.50 C550.96,278.74 552.33,278.57 555.13,280.07 C556.73,280.92 556.89,281.43 555.94,282.57 C554.53,284.27 536.00,284.67 536.00,283.00 ZM 343.58 237.14 C342.54,235.44 344.06,233.23 348.10,230.55 C352.51,227.64 357.45,226.29 358.36,227.77 C359.15,229.04 356.72,231.09 349.84,234.93 C346.67,236.70 343.91,237.67 343.58,237.14 ZM 488.69 168.21 C487.71,167.13 487.30,165.55 487.65,164.21 C488.41,161.31 489.41,161.42 490.84,164.55 C493.10,169.52 491.84,171.69 488.69,168.21 Z" fill="rgb(244,220,226)"/>
</g>
</svg>